<?xml version="1.0" encoding="UTF-8"?>
<svg version="1.1" xmlns="http://www.w3.org/2000/svg" width="512" height="512">
<path d="M0 0 C3.55564793 0.00917732 7.11122234 -0.00498098 10.66685486 -0.01591969 C17.60564014 -0.0335764 24.54425099 -0.02992288 31.48304272 -0.01826912 C37.12937014 -0.00918393 42.77564916 -0.0080326 48.42198181 -0.01236439 C49.22987797 -0.01297732 50.03777413 -0.01359025 50.870152 -0.01422176 C52.51209197 -0.01550084 54.15403193 -0.0167977 55.79597187 -0.01811212 C71.14213188 -0.02948028 86.48819585 -0.01646363 101.8343401 0.00508934 C114.96215347 0.02295689 128.08982529 0.01985172 141.21763611 0.0014143 C156.51411513 -0.02005929 171.81051027 -0.02838199 187.10700226 -0.01613665 C188.74243163 -0.01486264 190.37786101 -0.01360515 192.01329041 -0.01236439 C192.81766053 -0.01174729 193.62203065 -0.01113018 194.45077562 -0.01049438 C200.08117237 -0.00706088 205.71151528 -0.01282631 211.34190369 -0.0222826 C218.21659651 -0.03357646 225.091107 -0.03030917 231.9657793 -0.00915962 C235.46397733 0.00125264 238.96187292 0.00564404 242.46006775 -0.00775623 C261.007281 -0.06160418 278.43161531 0.925763 295.90513611 7.71039867 C296.6807489 8.00591625 297.45636169 8.30143383 298.25547791 8.60590649 C328.83975559 20.6810301 353.10399742 44.48819969 366.21763611 74.52289867 C366.49977966 75.16839672 366.78192322 75.81389477 367.07261658 76.47895336 C375.43347238 96.0779424 376.821555 115.1546129 376.74053478 136.30526257 C376.73135746 139.86091049 376.74551576 143.41648491 376.75645447 146.97211742 C376.77411119 153.9109027 376.77045767 160.84951356 376.7588039 167.78830528 C376.74971872 173.4346327 376.74856738 179.08091172 376.75289917 184.72724438 C376.7535121 185.53514054 376.75412503 186.3430367 376.75475654 187.17541456 C376.75603562 188.81735453 376.75733248 190.45929449 376.75864691 192.10123444 C376.77001506 207.44739445 376.75699841 222.79345841 376.73544544 238.13960266 C376.71757789 251.26741603 376.72068306 264.39508785 376.73912048 277.52289867 C376.76059408 292.81937769 376.76891677 308.11577283 376.75667143 323.41226482 C376.75539742 325.04769419 376.75413993 326.68312358 376.75289917 328.31855297 C376.75228207 329.12292309 376.75166497 329.92729321 376.75102916 330.75603819 C376.74759566 336.38643493 376.7533611 342.01677785 376.76281738 347.64716625 C376.77411124 354.52185908 376.77084395 361.39636956 376.74969441 368.27104187 C376.73928214 371.7692399 376.73489074 375.26713548 376.74829102 378.76533031 C376.80213897 397.31254356 375.81477179 414.73687788 369.03013611 432.21039867 C368.58685974 433.37381786 368.58685974 433.37381786 368.1346283 434.56074047 C356.05950468 465.14501815 332.25233509 489.40925999 302.21763611 502.52289867 C301.57213806 502.80504223 300.92664001 503.08718578 300.26158142 503.37787914 C280.66259238 511.73873495 261.58592188 513.12681756 240.43527222 513.04579735 C236.87962429 513.03662003 233.32404987 513.05077833 229.76841736 513.06171703 C222.82963208 513.07937375 215.89102122 513.07572023 208.9522295 513.06406647 C203.30590208 513.05498128 197.65962306 513.05382994 192.01329041 513.05816174 C191.20539424 513.05877467 190.39749808 513.0593876 189.56512022 513.06001911 C187.92318025 513.06129819 186.28124029 513.06259504 184.63930035 513.06390947 C169.29314034 513.07527762 153.94707637 513.06226098 138.60093212 513.04070801 C125.47311875 513.02284045 112.34544693 513.02594563 99.21763611 513.04438305 C83.92115709 513.06585664 68.62476195 513.07417934 53.32826996 513.06193399 C51.69284059 513.06065999 50.05741121 513.0594025 48.42198181 513.05816174 C47.61761169 513.05754463 46.81324157 513.05692753 45.98449659 513.05629173 C40.35409985 513.05285823 34.72375693 513.05862366 29.09336853 513.06807995 C22.21867571 513.07937381 15.34416522 513.07610652 8.46949291 513.05495697 C4.97129489 513.04454471 1.4733993 513.04015331 -2.02479553 513.05355358 C-20.57200878 513.10740153 -37.9963431 512.12003435 -55.46986389 505.33539867 C-56.63328308 504.89212231 -56.63328308 504.89212231 -57.82020569 504.43989086 C-88.40448337 492.36476725 -112.66872521 468.55759766 -125.78236389 438.52289867 C-126.06450745 437.87740063 -126.346651 437.23190258 -126.63734436 436.56684399 C-134.99820017 416.96785495 -136.38628278 397.89118445 -136.30526257 376.74053478 C-136.29608525 373.18488686 -136.31024355 369.62931244 -136.32118225 366.07367992 C-136.33883897 359.13489464 -136.33518545 352.19628379 -136.32353169 345.25749207 C-136.3144465 339.61116464 -136.31329516 333.96488563 -136.31762695 328.31855297 C-136.31823989 327.51065681 -136.31885282 326.70276065 -136.31948432 325.87038279 C-136.3207634 324.22844281 -136.32206026 322.58650286 -136.32337469 320.94456291 C-136.33474284 305.5984029 -136.3217262 290.25233894 -136.30017322 274.90619469 C-136.28230567 261.77838131 -136.28541084 248.6507095 -136.30384827 235.52289867 C-136.32532186 220.22641966 -136.33364456 204.93002452 -136.32139921 189.63353252 C-136.3201252 187.99810315 -136.31886772 186.36267377 -136.31762695 184.72724438 C-136.31700985 183.92287426 -136.31639275 183.11850413 -136.31575695 182.28975916 C-136.31232344 176.65936241 -136.31808888 171.0290195 -136.32754517 165.3986311 C-136.33883903 158.52393827 -136.33557173 151.64942779 -136.31442219 144.77475548 C-136.30400992 141.27655745 -136.29961852 137.77866186 -136.3130188 134.28046703 C-136.36686675 115.73325378 -135.37949957 98.30891947 -128.59486389 80.83539867 C-128.29934631 80.05978588 -128.00382874 79.28417309 -127.69935608 78.48505688 C-115.62423246 47.9007792 -91.81706288 23.63653736 -61.78236389 10.52289867 C-61.13686584 10.24075512 -60.4913678 9.95861156 -59.8263092 9.66791821 C-40.22732016 1.3070624 -21.15064966 -0.08102022 0 0 Z " fill="#FDFDFD" transform="translate(135.78236389160156,-0.5228986740112305)"/>
<path d="M0 0 C38.94 0 77.88 0 118 0 C118 4.95 118 9.9 118 15 C116.8140625 15.00257812 115.628125 15.00515625 114.40625 15.0078125 C104.02310116 15.19859599 95.57955528 16.6157028 86.02734375 20.72265625 C83 22 83 22 81 22 C80.75635476 28.0031481 81.50951384 32.83647062 83.25 38.5625 C83.70762598 40.13915042 84.16464696 41.71597655 84.62109375 43.29296875 C84.8516748 44.07720215 85.08225586 44.86143555 85.31982422 45.66943359 C86.35812626 49.22709018 87.34339524 52.79796831 88.3125 56.375 C88.63863281 57.55835938 88.96476562 58.74171875 89.30078125 59.9609375 C90 63 90 63 90 67 C90.66 67 91.32 67 92 67 C92.33820166 68.5823006 92.67035939 70.16589375 93 71.75 C93.2784375 73.07257813 93.2784375 73.07257813 93.5625 74.421875 C94 77 94 77 94 81 C94.66 81 95.32 81 96 81 C99.05564338 91.45452829 99.05564338 91.45452829 99.5 96.125 C99.98887217 99.91375934 100.96172288 102.97845828 102.234375 106.546875 C103.60435375 110.93639874 104.27961444 115.46580852 105 120 C105.66 120 106.32 120 107 120 C109.29612756 129.41002278 109.29612756 129.41002278 109 134 C109.66 134 110.32 134 111 134 C111.33 135.98 111.66 137.96 112 140 C128.17 140 144.34 140 161 140 C161.99 135.38 162.98 130.76 164 126 C166.0625 121.125 166.0625 121.125 167.03515625 119.2578125 C168.16065598 116.624052 168.78543743 113.94381128 169.44848633 111.16357422 C170.37133106 107.54327761 171.60125254 104.03215388 172.8125 100.5 C174.40952302 95.79754505 175.98851397 91.09547082 177.43359375 86.34375 C177.65619873 85.61220703 177.87880371 84.88066406 178.1081543 84.12695312 C178.52771078 82.73662369 178.94215868 81.34473969 179.35083008 79.95117188 C180.23801596 77.01689655 180.7967778 75.2032222 183 73 C183.1546875 71.2984375 183.1546875 71.2984375 183.3125 69.5625 C183.67918035 65.86236196 184.75530455 63.09092405 186.375 59.75 C188.75450745 54.83416942 190.04636892 50.08114394 191.25390625 44.7734375 C192.11739975 41.56359256 193.44721063 38.95269873 195.02734375 36.05078125 C196.98529853 31.92256333 197.87844021 27.41229015 199 23 C199.46640536 21.28813858 199.94518069 19.57958944 200.4375 17.875 C200.74494141 16.78832031 200.74494141 16.78832031 201.05859375 15.6796875 C202.45975338 11.69132441 204.28312014 7.86297968 206 4 C212.6 4 219.2 4 226 4 C229.29613226 12.93145514 232.29272919 21.93047344 235.1875 31 C238.35154916 40.90528981 241.55246745 50.79665082 244.82901001 60.6652832 C245.2754053 62.0106208 245.72070237 63.35632331 246.16488647 64.70239258 C246.78395536 66.57734519 247.40749248 68.45082073 248.03125 70.32421875 C248.38767578 71.39760498 248.74410156 72.47099121 249.11132812 73.5769043 C249.77699404 75.91712533 249.77699404 75.91712533 251 77 C251.29922386 78.32725037 251.56400789 79.66232286 251.8125 81 C252.71180791 85.2666413 254.21280613 88.88971303 256.0625 92.8203125 C257.20318523 95.47240565 257.81208068 98.09354093 258.4375 100.90234375 C259.312621 104.16581581 260.66081171 107.21562708 262 110.3125 C263.04647666 113.12490602 263.76037745 115.95717106 264.45996094 118.87255859 C265.53879133 123.12252607 266.95840516 127.27339386 268.3203125 131.43945312 C269.27150566 134.40910083 270 136.86048747 270 140 C287.16 140 304.32 140 322 140 C322 139.01 322 138.02 322 137 C322.66 137 323.32 137 324 137 C323.938125 135.6696875 323.938125 135.6696875 323.875 134.3125 C324.00251166 130.93344103 324.74867861 129.09149991 326 126 C326.19701108 124.62901881 326.36168298 123.25314048 326.5 121.875 C327 118 327 118 329 115 C329.67547163 112.98303449 329.67547163 112.98303449 330.18359375 110.75390625 C330.38742676 109.9222998 330.59125977 109.09069336 330.80126953 108.23388672 C331.01122559 107.3523291 331.22118164 106.47077148 331.4375 105.5625 C331.65776855 104.66031738 331.87803711 103.75813477 332.10498047 102.82861328 C332.74152552 100.22022844 333.3713348 97.61029316 334 95 C335.57626341 88.53523686 337.22417602 82.13399589 339.1796875 75.7734375 C340.56751111 71.08127197 341.79099168 66.34510393 343.03515625 61.61328125 C344 58 344 58 345.10546875 54.8046875 C346.36350752 49.45390251 346.28966194 44.28915292 346.25 38.8125 C346.25773437 37.73291016 346.26546875 36.65332031 346.2734375 35.54101562 C346.27085937 34.50267578 346.26828125 33.46433594 346.265625 32.39453125 C346.26224121 30.98457886 346.26224121 30.98457886 346.25878906 29.54614258 C345.98682505 26.87037591 345.48553481 25.23374961 344 23 C341.60280568 22.32041397 341.60280568 22.32041397 339 22 C336.6875 20.9375 336.6875 20.9375 335 20 C335 19.34 335 18.68 335 18 C334.01 18.04125 333.02 18.0825 332 18.125 C328.56754436 18.13186491 325.57826828 17.43117289 322.265625 16.51171875 C317.90301059 15.52636963 313.45206628 15.33390497 309 15 C309 10.05 309 5.1 309 0 C342.99 0 376.98 0 412 0 C412 4.95 412 9.9 412 15 C409.6075 15.515625 407.215 16.03125 404.75 16.5625 C397.73350746 18.19536375 392.32381841 20.67556191 386.2578125 24.609375 C384 26 384 26 382 26 C381.62875 26.86625 381.62875 26.86625 381.25 27.75 C380 30 380 30 378.13671875 31.72265625 C370.38489195 39.98465812 367.52231985 53.1967171 364.6015625 63.87695312 C363.81107744 66.66674941 362.92135107 69.41962742 362.02685547 72.17749023 C359.76063102 79.16544 357.99195056 86.08760119 356.578125 93.3046875 C356 96 356 96 355 98 C354.34 98 353.68 98 353 98 C352.89042969 98.76183594 352.78085937 99.52367187 352.66796875 100.30859375 C351.78746884 106.04258094 350.69274396 111.38497777 348.72265625 116.83984375 C347.95774355 119.12631253 347.43108459 121.39089884 346.9375 123.75 C346.25314179 127.01908302 345.29886017 129.9152071 344 133 C343.32148104 135.32991436 342.65370563 137.66300239 342 140 C343.85238281 140.05607422 343.85238281 140.05607422 345.7421875 140.11328125 C367.37340444 140.89235801 389.20678367 142.88993064 406 158 C406.886875 158.61875 407.77375 159.2375 408.6875 159.875 C414.17470729 164.91729859 417.68119477 170.50807703 418 178 C418.66 178 419.32 178 420 178 C423.44466905 191.5008803 421.96963314 207.45735946 415 219.4375 C414.02691058 220.97569082 413.02809549 222.49801675 412 224 C411.484375 224.75410156 410.96875 225.50820313 410.4375 226.28515625 C409.7259375 227.13400391 409.7259375 227.13400391 409 228 C408.34 228 407.68 228 407 228 C406.34 229.32 405.68 230.64 405 232 C404.34 232 403.68 232 403 232 C402.67 232.99 402.34 233.98 402 235 C397.66666667 238 397.66666667 238 395 238 C395 238.66 395 239.32 395 240 C394.01 240 393.02 240 392 240 C392 240.66 392 241.32 392 242 C373.94174757 251 373.94174757 251 364 251 C364.33 251.66 364.66 252.32 365 253 C367.59257383 253.59191183 370.12906901 254.08009732 372.75 254.5 C377.42630191 255.26536596 381.63426024 256.07483004 386 258 C387.41307018 258.46930433 388.82975277 258.92788513 390.25 259.375 C395.68766046 261.16022856 400.8834029 263.44170145 406 266 C406 266.66 406 267.32 406 268 C406.61875 268.309375 407.2375 268.61875 407.875 268.9375 C409.25 269.625 410.625 270.3125 412 271 C412 271.66 412 272.32 412 273 C412.70125 273.185625 413.4025 273.37125 414.125 273.5625 C419.82612612 276.41306306 422.77582049 281.18291512 425 287 C425.99 287.33 426.98 287.66 428 288 C428.84375 289.71484375 428.84375 289.71484375 429.5 291.9375 C429.7165625 292.64777344 429.933125 293.35804688 430.15625 294.08984375 C430.4346875 295.05019531 430.713125 296.01054687 431 297 C431.24556641 297.7101123 431.49113281 298.42022461 431.74414062 299.15185547 C433.88774691 305.59930134 434.54559601 311.47215333 434.5 318.25 C434.49355469 319.25708008 434.48710937 320.26416016 434.48046875 321.30175781 C434.14952613 334.86605078 429.56486539 344.50056542 421 355 C420.56816406 355.59425781 420.13632812 356.18851562 419.69140625 356.80078125 C416.35224427 361.27225421 411.83595134 364.32074995 407 367 C406.34 367 405.68 367 405 367 C405 367.66 405 368.32 405 369 C402.46080994 370.29673602 399.91885762 371.58747837 397.375 372.875 C396.66214844 373.23980469 395.94929688 373.60460937 395.21484375 373.98046875 C375.30063993 384.02892022 352.29818941 382.14280543 330.6015625 382.09765625 C327.95356157 382.0957883 325.30556336 382.09431689 322.65756226 382.09336853 C316.43543446 382.0902813 310.21332458 382.08210369 303.99120462 382.07201904 C296.89790981 382.06077612 289.80461406 382.055327 282.71131253 382.05032361 C268.14086562 382.03991839 253.57043366 382.0221649 239 382 C239 378.37 239 374.74 239 371 C240.60875 370.9175 242.2175 370.835 243.875 370.75 C248.95294207 370.29311575 253.07226373 369.10480821 257.70703125 367.01953125 C260 366 260 366 262.07421875 365.38671875 C264.69785545 364.57817662 266.58201071 363.66939982 268.05859375 361.3046875 C272.33233674 350.22158367 271.14455352 336.73643156 271.09765625 325.0703125 C271.09578428 323.70026705 271.09436407 322.33022092 271.09336853 320.96017456 C271.08960458 317.40604709 271.07982898 313.85196245 271.06866455 310.29785156 C271.05831643 306.65039651 271.05384262 303.00293434 271.04882812 299.35546875 C271.03819924 292.23696196 271.02119941 285.11848382 271 278 C270.34 278 269.68 278 269 278 C268.99742187 277.34257812 268.99484375 276.68515625 268.9921875 276.0078125 C268.64598881 267.49132461 266.31264157 260.23860924 263.47265625 252.296875 C262.46815768 249.47254018 261.6295559 246.67251044 260.9296875 243.7578125 C260.17135145 240.69260544 259.30547336 238.01029559 258.0625 235.125 C256.69770276 231.84048795 255.56435514 228.61698001 254.625 225.1875 C253.13557337 219.9539346 250.83374047 215.22770042 248.40234375 210.37109375 C247.00521931 207.0125467 246.25471752 203.8977909 245.52954102 200.35327148 C244.64259727 196.41170821 243.3143379 192.62863454 242 188.8125 C241.73960937 188.04486328 241.47921875 187.27722656 241.2109375 186.48632812 C240.10079418 183.21476941 238.98207573 179.95017759 237.8125 176.69921875 C237 174 237 174 237 170 C236.34 170 235.68 170 235 170 C234.85304688 169.34257812 234.70609375 168.68515625 234.5546875 168.0078125 C232.99058199 161.37384774 231.07745806 154.90420607 228.9375 148.4375 C228.6801709 147.65197754 228.4228418 146.86645508 228.15771484 146.05712891 C227.78380615 144.944104 227.78380615 144.944104 227.40234375 143.80859375 C227.06964478 142.81557251 227.06964478 142.81557251 226.73022461 141.80249023 C225.9541616 139.71273718 225.9541616 139.71273718 224 137 C223.50607842 135.12477231 223.01888112 133.24734904 222.57617188 131.359375 C221.47661183 126.85676982 220.09588992 122.43397597 218.75 118 C218.44352539 116.98832764 218.13705078 115.97665527 217.82128906 114.93432617 C215.78655795 108.31410067 213.52189633 101.83888971 210.99804688 95.39160156 C209.10586247 90.49099864 207.75786627 85.58097597 206.640625 80.453125 C206.02080569 78.07967056 205.1810044 76.14182153 204 74 C201.38820956 76.61179044 200.80911933 79.06670822 199.625 82.5625 C198.22082915 86.64345246 196.7816192 90.65559134 194.9375 94.5625 C191.08262908 102.94333273 188.83291159 111.98818467 187 121 C186.34 121 185.68 121 185 121 C184.87367188 121.66 184.74734375 122.32 184.6171875 123 C183.8590891 126.68493401 183.00872545 130.34367029 182.125 134 C181.96386719 134.69867188 181.80273438 135.39734375 181.63671875 136.1171875 C180.63208936 140.24473459 179.29861674 143.44759231 177 147 C176.13394125 149.04827472 176.13394125 149.04827472 175.5 151.125 C175.2525 151.89972656 175.005 152.67445313 174.75 153.47265625 C173.95307224 156.15813677 173.22082728 158.85564338 172.5 161.5625 C171.46182818 165.46105147 170.22550015 169.16181569 168.74609375 172.91015625 C167.86152126 175.38788548 167.21631342 177.88939474 166.5625 180.4375 C165.20205072 185.58169882 163.24357868 190.19112193 161 195 C157.99667803 201.63769215 156.04506025 208.28272664 154.48242188 215.37915039 C153.54329282 219.47373293 152.19269308 222.45460073 150 226 C145.30763833 237.0400636 142.97910821 248.09734724 142 260 C141.91686554 260.77597031 141.83373108 261.55194061 141.74807739 262.35142517 C141.01350374 269.43401042 140.92769273 276.39347616 141.04296875 283.5078125 C141.06536556 285.9010333 141.08682002 288.29426307 141.10742188 290.6875 C141.1443382 294.39966874 141.18728124 298.11136336 141.24682617 301.82324219 C141.46447367 316.10624046 141.34416812 329.29944392 137 343 C136.34 343 135.68 343 135 343 C135 344.32 135 345.64 135 347 C134.34 347 133.68 347 133 347 C132.91492188 347.69609375 132.82984375 348.3921875 132.7421875 349.109375 C131.81872302 352.70602615 130.19395232 355.17309655 128.125 358.25 C127.42632812 359.30703125 126.72765625 360.3640625 126.0078125 361.453125 C124 364 124 364 121 365 C120.31120677 366.32203862 119.64698887 367.65700796 119 369 C117.34375 370.703125 117.34375 370.703125 115.5 372.25 C114.8915625 372.77078125 114.283125 373.2915625 113.65625 373.828125 C112 375 112 375 110 375 C110 375.66 110 376.32 110 377 C108.39967863 377.84069415 106.79458829 378.67231505 105.1875 379.5 C104.29417969 379.9640625 103.40085937 380.428125 102.48046875 380.90625 C100 382 100 382 97 382 C97 382.66 97 383.32 97 384 C95.02 384 93.04 384 91 384 C91 384.66 91 385.32 91 386 C73.55176473 388.56794001 55.93538445 389.84105451 39 384 C39 383.34 39 382.68 39 382 C37.35 381.67 35.7 381.34 34 381 C34 380.34 34 379.68 34 379 C33.01 379 32.02 379 31 379 C31 378.34 31 377.68 31 377 C28.34771188 375.92474806 25.71631546 374.90543849 23 374 C10.21041651 360.21326254 5.45866988 344.25600123 5.66796875 325.609375 C6.13237038 320.56105614 7.66171958 316.46057509 10 312 C10.33 311.34 10.66 310.68 11 310 C11.66 310 12.32 310 13 310 C13.39445312 309.07960938 13.39445312 309.07960938 13.796875 308.140625 C15.86518507 304.46064474 19.1081747 303.12520732 23 302 C29.64898784 301.38532469 35.86333283 301.110797 42 304 C42 304.66 42 305.32 42 306 C42.598125 306.268125 43.19625 306.53625 43.8125 306.8125 C47.99382223 309.08236064 49.50847941 311.51922357 51 316 C52.2355122 327.89539653 49.58425214 335.52728089 43.05078125 345.17578125 C41.93857351 347.10664004 41.43702443 348.82448277 41 351 C40.34 351 39.68 351 39 351 C38.67 352.32 38.34 353.64 38 355 C37.34 355 36.68 355 36 355 C35.94600264 356.45792884 35.90720823 357.91642712 35.875 359.375 C35.85179687 360.18710937 35.82859375 360.99921875 35.8046875 361.8359375 C35.78629949 364.21342243 35.78629949 364.21342243 38 366 C38 366.99 38 367.98 38 369 C38.73299316 369.27626221 39.46598633 369.55252441 40.22119141 369.8371582 C42.80325908 370.91767027 45.05150581 372.1929089 47.4609375 373.60546875 C53.77887999 376.79726048 59.68010463 376.56412664 66.625 376.3125 C67.81996094 376.28994141 69.01492187 376.26738281 70.24609375 376.24414062 C73.16540989 376.1857543 76.08201029 376.10391701 79 376 C79 375.34 79 374.68 79 374 C80.32 374 81.64 374 83 374 C83 373.34 83 372.68 83 372 C83.99 372 84.98 372 86 372 C86 371.34 86 370.68 86 370 C87.35546875 368.80859375 87.35546875 368.80859375 89.1875 367.4375 C95.92476952 361.82991405 98.50949584 354.15462221 101 346 C101.25652344 345.29230469 101.51304687 344.58460938 101.77734375 343.85546875 C105.79781105 332.75417845 106.30489665 321.65325079 106.1875 309.9375 C106.17928166 308.56648907 106.17130873 307.19547664 106.16357422 305.82446289 C106.10727161 298.1922372 105.97541349 290.56228086 105.625 282.9375 C105.5943042 282.20200928 105.5636084 281.46651855 105.53198242 280.70874023 C105.28905394 276.47232908 104.41009511 272.98174338 103 269 C102.46643774 266.78967769 101.99126565 264.57020901 101.51367188 262.34716797 C99.05251633 251.10118442 95.80742127 240.09093528 92.09082031 229.20263672 C90.50635677 224.55480866 89.07951715 219.90955394 87.83984375 215.15625 C86.64063704 210.64946385 85.34813952 206.1702805 84.0625 201.6875 C83.80114258 200.77492432 83.53978516 199.86234863 83.27050781 198.92211914 C82.75429654 197.120052 82.23786242 195.31804867 81.72119141 193.51611328 C80.72857402 190.05304126 79.73919928 186.58904992 78.75 183.125 C78.45609375 182.09632813 78.1621875 181.06765625 77.859375 180.0078125 C77.57578125 179.01523438 77.2921875 178.02265625 77 177 C76.68675781 175.92492187 76.37351562 174.84984375 76.05078125 173.7421875 C74.76962553 169.17955858 73.59329258 164.5957331 72.4375 160 C72.21642578 159.13632813 71.99535156 158.27265625 71.76757812 157.3828125 C70.56362282 152.59608989 69.59263662 147.9009051 69 143 C68.34 143 67.68 143 67 143 C66.32595716 140.43923903 65.660586 137.87673417 65 135.3125 C64.80921875 134.59126953 64.6184375 133.87003906 64.421875 133.12695312 C63.45134572 129.33149039 62.75044761 125.95384561 63 122 C62.34 122 61.68 122 61 122 C60.32595716 119.43923903 59.660586 116.87673417 59 114.3125 C58.80921875 113.59126953 58.6184375 112.87003906 58.421875 112.12695312 C57.45134572 108.33149039 56.75044761 104.95384561 57 101 C56.34 101 55.68 101 55 101 C54.75765625 100.01902344 54.5153125 99.03804688 54.265625 98.02734375 C52.50987894 90.94512741 50.73121199 83.86912237 48.875 76.8125 C48.56304687 75.62269531 48.25109375 74.43289062 47.9296875 73.20703125 C47.07636052 70.06256816 47.07636052 70.06256816 45.94140625 67.37109375 C44.99120355 64.97784464 44.49711743 62.78319871 44.0625 60.25 C43.12111412 55.30954853 41.68665636 50.72894305 40 46 C39.72414062 45.1234375 39.44828125 44.246875 39.1640625 43.34375 C36.84319313 36.28195943 33.5268896 27.60614947 26.78125 23.72265625 C26.1934375 23.48417969 25.605625 23.24570313 25 23 C25 22.34 25 21.68 25 21 C22.03 20.34 19.06 19.68 16 19 C16 18.34 16 17.68 16 17 C15.18015625 16.93941406 14.3603125 16.87882812 13.515625 16.81640625 C12.43796875 16.73261719 11.3603125 16.64882812 10.25 16.5625 C9.18265625 16.48128906 8.1153125 16.40007812 7.015625 16.31640625 C4 16 4 16 0 15 C0 10.05 0 5.1 0 0 Z " fill="#030303" transform="translate(37,60)"/>
<path d="M0 0 C50.09717868 0 50.09717868 0 60.4375 5.5625 C61.21996094 5.97628906 62.00242187 6.39007813 62.80859375 6.81640625 C63.89333984 7.40228516 63.89333984 7.40228516 65 8 C66.33105027 8.67121338 67.66363646 9.3394285 69 10 C69 10.66 69 11.32 69 12 C69.88945312 12.38671875 69.88945312 12.38671875 70.796875 12.78125 C73.17660965 14.09769895 74.50978792 15.42580782 76.25 17.5 C77.03117187 18.41265625 77.03117187 18.41265625 77.828125 19.34375 C79 21 79 21 79 23 C79.66 23 80.32 23 81 23 C88.18243009 42.05909127 87.82467051 61.66343355 81 81 C80.34 81 79.68 81 79 81 C78.67 82.98 78.34 84.96 78 87 C77.34 87 76.68 87 76 87 C75.7215625 87.99 75.7215625 87.99 75.4375 89 C73.39549625 93.26157304 70.59507873 96.9164455 67 100 C64.26953125 100.734375 64.26953125 100.734375 62 101 C61.505 102.485 61.505 102.485 61 104 C44.55219346 110.29878244 26.50064221 111.8827407 10 105 C6.17022774 102.89503326 4.33039065 100.79594112 2.625 96.6875 C2.41875 95.800625 2.2125 94.91375 2 94 C1.34 94 0.68 94 0 94 C0 62.98 0 31.96 0 0 Z " fill="#FCFCFC" transform="translate(344,321)"/>
<path d="M0 0 C14.38519798 -0.22833648 24.21078317 1.82951961 35 12 C44.4718836 23.20059239 45.77782281 35.75256276 45 50 C43.08597604 66.87103594 43.08597604 66.87103594 39 73 C38.34 73 37.68 73 37 73 C36.74992187 73.7321875 36.49984375 74.464375 36.2421875 75.21875 C33.07240564 82.31587166 26.88767789 86.96856476 19.875 89.9375 C17.93359593 90.67144544 15.97383916 91.35837343 14 92 C12.95529541 92.34603271 11.91059082 92.69206543 10.83422852 93.04858398 C6.62512347 94.09302094 2.96536092 94.25623591 -1.33984375 94.1953125 C-2.10680069 94.1924826 -2.87375763 94.18965271 -3.66395569 94.18673706 C-6.08863621 94.17563475 -8.51293309 94.15054967 -10.9375 94.125 C-12.5917915 94.1149573 -14.24608885 94.10583372 -15.90039062 94.09765625 C-19.93373923 94.07572817 -23.9668048 94.04126843 -28 94 C-25.85485027 84.19627766 -23.2816001 74.68941162 -20.04760742 65.18115234 C-17.95288747 58.97360028 -16.09372342 52.70226428 -14.23779297 46.41992188 C-12.70441878 41.25924279 -11.06617262 36.15210123 -9.3125 31.0625 C-7.06951757 24.4637904 -5.41474482 17.82068033 -4 11 C-3.34 11 -2.68 11 -2 11 C-1.90912109 10.06027344 -1.90912109 10.06027344 -1.81640625 9.1015625 C-1.73261719 8.28429687 -1.64882813 7.46703125 -1.5625 6.625 C-1.48128906 5.81289062 -1.40007812 5.00078125 -1.31640625 4.1640625 C-1 2 -1 2 0 0 Z " fill="#FAFAFA" transform="translate(373,214)"/>
<path d="M0 0 C-1.53643852 3.68069887 -3.78150945 5.98775204 -6.625 8.75 C-7.85089844 9.94882813 -7.85089844 9.94882813 -9.1015625 11.171875 C-9.72804688 11.77515625 -10.35453125 12.3784375 -11 13 C-11.33 12.01 -11.66 11.02 -12 10 C-10.671875 8.02734375 -10.671875 8.02734375 -8.75 5.9375 C-8.12609375 5.24527344 -7.5021875 4.55304688 -6.859375 3.83984375 C-2.97876858 0 -2.97876858 0 0 0 Z " fill="#CFCFCF" transform="translate(424,84)"/>
<path d="M0 0 C-0.639375 0.28875 -1.27875 0.5775 -1.9375 0.875 C-4.15206079 1.82823451 -4.15206079 1.82823451 -5 4 C-6.65 3.67 -8.3 3.34 -10 3 C-10 2.34 -10 1.68 -10 1 C-3.71428571 -1.42857143 -3.71428571 -1.42857143 0 0 Z " fill="#BBBBBB" transform="translate(411,310)"/>
</svg>
