<?xml version="1.0" encoding="UTF-8"?>
<svg version="1.1" xmlns="http://www.w3.org/2000/svg" width="512" height="512">
<path d="M0 0 C45.87 0 91.74 0 139 0 C139 6.27 139 12.54 139 19 C131.8125 18.9375 131.8125 18.9375 129.57739258 18.90991211 C125.9030391 18.89452994 122.57658293 19.1932042 119 20 C118.01 20 117.02 20 116 20 C112.40320934 20.32326553 112.40320934 20.32326553 109 21 C108.67 21.66 108.34 22.32 108 23 C105.66989091 23.67784992 103.33640176 24.34416793 101 25 C100.34 25.66 99.68 26.32 99 27 C97.515 27.495 97.515 27.495 96 28 C96 31.96 96 35.92 96 40 C96.66 40.33 97.32 40.66 98 41 C98.34123581 42.99866686 98.6725678 44.99902542 99 47 C99.47597575 48.28002517 99.97761595 49.55070277 100.5 50.8125 C101.97474916 54.52430827 102.45558932 57.94871707 102.69140625 61.921875 C103.04105094 64.27644431 103.92248947 65.89109806 105 68 C105.165 69.216875 105.33 70.43375 105.5 71.6875 C105.665 72.780625 105.83 73.87375 106 75 C106.66 75.33 107.32 75.66 108 76 C108.25713775 77.99281757 108.50836152 79.98829861 108.65625 81.9921875 C108.91308355 84.30982249 108.91308355 84.30982249 111 87 C111.2165625 88.6396875 111.2165625 88.6396875 111.4375 90.3125 C111.78755019 93.97662262 111.78755019 93.97662262 113.5 96.8125 C115.28490092 100.60541446 115.48690124 103.779907 115.69140625 107.92578125 C115.84416016 108.95251953 115.84416016 108.95251953 116 110 C116.66 110.33 117.32 110.66 118 111 C118.39852785 112.65229066 118.71981185 114.32358016 119 116 C119.46206963 117.83771692 119.94174043 119.67108386 120.4375 121.5 C120.68371094 122.4178125 120.92992188 123.335625 121.18359375 124.28125 C121.95501239 127.00961377 121.95501239 127.00961377 123.0625 129.59375 C123.93349382 131.82930079 124.33772502 133.6279066 124.5625 136 C124.88454723 139.047947 125.38155186 141.99610902 126 145 C126 145.66 126 146.32 126 147 C126.66 147.33 127.32 147.66 128 148 C129.57702277 151.85494456 130 154.88763426 130 159 C130.66 159.66 131.32 160.32 132 161 C131.625 163.125 131.625 163.125 131 165 C131.99 164.67 132.98 164.34 134 164 C136.24840887 163.90451469 138.49956547 163.86926464 140.75 163.8671875 C141.73178223 163.86575241 141.73178223 163.86575241 142.73339844 163.86428833 C144.11523535 163.86360878 145.49707549 163.86544739 146.87890625 163.86962891 C148.99226054 163.8749804 151.10540231 163.86967639 153.21875 163.86328125 C154.56250047 163.86394207 155.9062508 163.86522332 157.25 163.8671875 C158.47203125 163.86831543 159.6940625 163.86944336 160.953125 163.87060547 C164 164 164 164 167 165 C168.62719482 165.08143855 170.25751719 165.1075302 171.88671875 165.09765625 C173.2934082 165.09282227 173.2934082 165.09282227 174.72851562 165.08789062 C176.19321289 165.07532227 176.19321289 165.07532227 177.6875 165.0625 C179.16959961 165.05573242 179.16959961 165.05573242 180.68164062 165.04882812 C183.12115474 165.03704303 185.56054689 165.02059011 188 165 C188.14695313 164.24332031 188.29390625 163.48664063 188.4453125 162.70703125 C189.56180505 157.25823311 191.29262794 152.09618043 193.2734375 146.9140625 C194.61817363 143.37147807 195.83600809 139.9224545 196.5 136.1875 C196.665 135.465625 196.83 134.74375 197 134 C197.66 133.67 198.32 133.34 199 133 C199.20262407 131.10884201 199.40240477 129.21732487 199.5859375 127.32421875 C200.18660328 123.95255708 201.61421186 121.12028745 203.08203125 118.046875 C204.12134692 115.72942218 204.62036335 113.5056019 205 111 C205.33 110.34 205.66 109.68 206 109 C206.46696694 107.33226094 206.93365808 105.66444377 207.3984375 103.99609375 C208.22609938 101.24976116 209.2497366 98.59222949 210.2734375 95.9140625 C211.61817363 92.37147807 212.83600809 88.9224545 213.5 85.1875 C213.665 84.465625 213.83 83.74375 214 83 C214.66 82.67 215.32 82.34 216 82 C216.20262407 80.10884201 216.40240477 78.21732487 216.5859375 76.32421875 C217.18660328 72.95255708 218.61421186 70.12028745 220.08203125 67.046875 C221.12134692 64.72942218 221.62036335 62.5056019 222 60 C222.33 59.34 222.66 58.68 223 58 C223.46696694 56.33226094 223.93365808 54.66444377 224.3984375 52.99609375 C225.22576683 50.25086461 226.24841847 47.59440732 227.2734375 44.91796875 C228.53876726 41.57777031 229.72470225 38.23883989 230.5 34.75 C231 33 231 33 233 31 C233.165 29.824375 233.33 28.64875 233.5 27.4375 C233.665 26.303125 233.83 25.16875 234 24 C234.99 23.505 234.99 23.505 236 23 C236.40632091 21.01354224 236.72949547 19.00946222 237 17 C237.4375 14.1875 237.4375 14.1875 238 12 C238.66 11.67 239.32 11.34 240 11 C240.33 9.02 240.66 7.04 241 5 C249.58 4.67 258.16 4.34 267 4 C267.66 6.97 268.32 9.94 269 13 C269.94935266 15.35439461 270.93910857 17.69371428 272 20 C272.33 20.99 272.66 21.98 273 23 C273.29777344 23.78632812 273.59554688 24.57265625 273.90234375 25.3828125 C279 38.88679245 279 38.88679245 279 45 C279.66 45.33 280.32 45.66 281 46 C281.35179197 48.3306218 281.68330179 50.66435067 282 53 C282.64298628 54.34491296 283.31113982 55.67799627 284 57 C284.52774407 58.4275477 285.02719733 59.86582661 285.5 61.3125 C285.88478516 62.48619141 285.88478516 62.48619141 286.27734375 63.68359375 C286.91835341 65.73828958 287.5022449 67.79720351 288.0625 69.875 C288.8710475 73.12314133 288.8710475 73.12314133 291 76 C291.35252835 77.66271244 291.68366101 79.33002439 292 81 C292.99529612 83.8180071 294.07495257 86.59445125 295.16015625 89.37890625 C296 92 296 92 296 96 C296.66 96.33 297.32 96.66 298 97 C298.35179197 99.3306218 298.68330179 101.66435067 299 104 C299.64298628 105.34491296 300.31113982 106.67799627 301 108 C301.52774407 109.4275477 302.02719733 110.86582661 302.5 112.3125 C302.75652344 113.09496094 303.01304687 113.87742187 303.27734375 114.68359375 C303.91835341 116.73828958 304.5022449 118.79720351 305.0625 120.875 C305.8710475 124.12314133 305.8710475 124.12314133 308 127 C308.35613097 128.66194453 308.68706727 130.32938275 309 132 C309.61421188 133.80275176 310.26151811 135.59448922 310.9375 137.375 C312.81154585 142.42677577 314.51212094 147.37765003 315.5 152.6875 C316.01566663 155.07245816 316.85679625 156.85649298 318 159 C319 162 319 162 319 165 C327.58 165 336.16 165 345 165 C345 164.67 345 164.34 345 164 C356.22 164 367.44 164 379 164 C379.33 160.7 379.66 157.4 380 154 C380.66 153.34 381.32 152.68 382 152 C382.6267558 148.89668831 383.01963066 145.79009476 383.4375 142.65234375 C383.623125 141.77707031 383.80875 140.90179688 384 140 C384.66 139.67 385.32 139.34 386 139 C386.46651207 136.87423218 386.46651207 136.87423218 386.625 134.4375 C386.69976562 133.61121094 386.77453125 132.78492188 386.8515625 131.93359375 C386.90054687 131.29550781 386.94953125 130.65742188 387 130 C387.66 130 388.32 130 389 130 C388.938125 128.3603125 388.938125 128.3603125 388.875 126.6875 C389 123 389 123 391 120 C391 119.01 391 118.02 391 117 C391.71439016 114.17645793 392.5317504 111.39063751 393.34375 108.59375 C394.12264146 105.96118787 394.12264146 105.96118787 394 103 C394.66 102.67 395.32 102.34 396 102 C396.62599243 98.61964088 397 95.43830115 397 92 C397.66 91.67 398.32 91.34 399 91 C398.95875 90.2575 398.9175 89.515 398.875 88.75 C399.00593589 85.86941035 399.66850671 84.49654992 401 82 C401 81.01 401 80.02 401 79 C401.4640625 78.1028125 401.4640625 78.1028125 401.9375 77.1875 C403.24430347 74.49702226 403.59786703 71.94897515 404 69 C404.66 69 405.32 69 406 69 C405.938125 67.4221875 405.938125 67.4221875 405.875 65.8125 C405.99370924 62.1918683 406.67382197 60.27123915 408 57 C407.62092718 54.81296615 407.62092718 54.81296615 407 53 C407.33 52.67 407.66 52.34 408 52 C408.16666667 49 408.16666667 49 408 46 C407.67 45.67 407.34 45.34 407 45 C406.85363946 41.63370749 406.92806521 39.21580438 408 36 C407.48775515 32.87966141 407.48775515 32.87966141 406 30 C403.63813861 28.73854232 403.63813861 28.73854232 401 28 C400.401875 27.505 399.80375 27.01 399.1875 26.5 C396.93882673 24.95805262 395.4379492 24.53079546 392.8125 23.9375 C391.554375 23.628125 390.29625 23.31875 389 23 C388.67 22.34 388.34 21.68 388 21 C387.13375 21.04125 386.2675 21.0825 385.375 21.125 C381.15741632 20.9687932 377.75954347 19.87977173 374 18 C374 18.66 374 19.32 374 20 C373.01 20 372.02 20 371 20 C371 19.34 371 18.68 371 18 C367.04 18.495 367.04 18.495 363 19 C363 12.73 363 6.46 363 0 C403.26 0 443.52 0 485 0 C485 6.27 485 12.54 485 19 C479 20 479 20 475 20 C471.3967581 20.3486391 471.3967581 20.3486391 468.6875 22.5 C466.62185884 24.33612548 465.64464674 24.23787227 462.9375 24.4375 C461.638125 24.623125 460.33875 24.80875 459 25 C457.6237206 26.91764174 457.6237206 26.91764174 457 29 C456.01 29.33 455.02 29.66 454 30 C453.67 30.66 453.34 31.32 453 32 C452.21625 32.28875 451.4325 32.5775 450.625 32.875 C446.66679697 34.57137273 445.48308789 36.88127015 443.8125 40.75 C443.544375 41.4925 443.27625 42.235 443 43 C442.34 43 441.68 43 441 43 C440.87625 43.7425 440.7525 44.485 440.625 45.25 C440.02871143 47.87366969 439.22115157 49.62553862 438 52 C437.51121538 53.30894864 437.03306417 54.62189128 436.5625 55.9375 C435.62985498 58.51064369 434.71436884 60.45905008 433.25 62.8125 C432.8375 63.534375 432.425 64.25625 432 65 C432.33 65.99 432.66 66.98 433 68 C432.37943989 69.68437744 431.70710678 71.35008418 431 73 C430.835 73.9075 430.67 74.815 430.5 75.75 C430.335 76.4925 430.17 77.235 430 78 C429.34 78.33 428.68 78.66 428 79 C427.60914534 81.09508223 427.60914534 81.09508223 427.5 83.5 C427.34375 85.96875 427.34375 85.96875 427 88 C426.34 88.33 425.68 88.66 425 89 C424.56978387 91.02520515 424.56978387 91.02520515 424.4375 93.375 C424.21246912 96.19477465 423.90445432 98.28663703 423 101 C422.34 101.33 421.68 101.66 421 102 C420.60914534 104.09508223 420.60914534 104.09508223 420.5 106.5 C420.34375 108.96875 420.34375 108.96875 420 111 C419.34 111.33 418.68 111.66 418 112 C417.60914534 114.09508223 417.60914534 114.09508223 417.5 116.5 C417.34375 118.96875 417.34375 118.96875 417 121 C416.34 121.33 415.68 121.66 415 122 C414.59802999 124.32249342 414.27313343 126.65885633 414 129 C413.5625 131.875 413.5625 131.875 413 134 C412.34 134.33 411.68 134.66 411 135 C410.64394667 137.12244133 410.64394667 137.12244133 410.5625 139.625 C410.1865938 144.41609542 409.03343443 147.67895184 407 152 C406.814375 152.928125 406.62875 153.85625 406.4375 154.8125 C406 157 406 157 404 159 C403.60235737 160.98821313 403.26224651 162.98944339 403 165 C404.65 165 406.3 165 408 165 C408 164.67 408 164.34 408 164 C411.89065893 163.92517964 415.24846745 164.03186257 419 165 C419.928125 165 420.85625 165 421.8125 165 C425.29340587 165 428.56203661 165.48106213 432 166 C432.99 166 433.98 166 435 166 C435.99 166.66 436.98 167.32 438 168 C438.66 167.67 439.32 167.34 440 167 C440 167.66 440 168.32 440 169 C440.54914063 168.81050781 441.09828125 168.62101563 441.6640625 168.42578125 C447.358365 167.38785655 453.64085345 170.14424106 458.375 173.125 C459.24125 173.74375 460.1075 174.3625 461 175 C463.57061311 175.64767793 463.57061311 175.64767793 466 176 C468.3125 177.0625 468.3125 177.0625 470 178 C470 178.66 470 179.32 470 180 C470.71671875 180.23976562 471.4334375 180.47953125 472.171875 180.7265625 C475.42346627 182.1906768 477.60451196 183.99089252 480.25 186.375 C481.12140625 187.14585937 481.9928125 187.91671875 482.890625 188.7109375 C485.02526712 191.0274195 485.43091974 192.02327248 486 195 C487.2065625 196.175625 487.2065625 196.175625 488.4375 197.375 C491.52236388 200.53510446 493 203.53196153 493 208 C493.66 208.66 494.32 209.32 495 210 C495.37890625 212.34765625 495.37890625 212.34765625 495.5625 215.0625 C495.53981953 218.33839564 495.53981953 218.33839564 497 221 C497.48435967 230.03188325 496.64163098 238.37067214 494 247 C493.34 247 492.68 247 492 247 C492.226875 247.515625 492.45375 248.03125 492.6875 248.5625 C493.16110833 252.25664496 491.59041502 254.70136144 490 258 C489.67 258.721875 489.34 259.44375 489 260.1875 C486.88563973 264.01977799 484.12675387 266.96799625 481 270 C480.360625 270.680625 479.72125 271.36125 479.0625 272.0625 C477 274 477 274 474.375 275.5 C471.89109499 276.75784397 471.89109499 276.75784397 471.16015625 278.92578125 C469.60409522 281.70782976 467.92519249 282.35493976 465.0625 283.6875 C464.18722656 284.10386719 463.31195313 284.52023437 462.41015625 284.94921875 C460 286 460 286 457 287 C456.46375 287.45375 455.9275 287.9075 455.375 288.375 C451.1615209 291.25790675 446.11053763 293 441 293 C440.34 293.66 439.68 294.32 439 295 C436.8359375 295.4140625 436.8359375 295.4140625 434.375 295.625 C433.14910156 295.73714844 433.14910156 295.73714844 431.8984375 295.8515625 C431.27195312 295.90054687 430.64546875 295.94953125 430 296 C430.33 296.66 430.66 297.32 431 298 C433.02333934 298.46842712 433.02333934 298.46842712 435.375 298.625 C436.56222656 298.73714844 436.56222656 298.73714844 437.7734375 298.8515625 C439.51246725 298.96749782 441.25711002 299 443 299 C443 299.66 443 300.32 443 301 C444.5778125 300.9690625 444.5778125 300.9690625 446.1875 300.9375 C449.34197423 300.98921269 451.98637473 301.11363963 455 302 C455.33 302.66 455.66 303.32 456 304 C457.99628664 304.3548954 459.99690671 304.68578929 462 305 C463.34977849 305.63270867 464.68352881 306.30062468 466 307 C467.9959722 307.67863055 469.99568551 308.34641919 472 309 C472.66 309.33 473.32 309.66 474 310 C474 310.66 474 311.32 474 312 C474.639375 312.12375 475.27875 312.2475 475.9375 312.375 C476.9584375 312.684375 476.9584375 312.684375 478 313 C478.33 313.66 478.66 314.32 479 315 C479.928125 315.268125 480.85625 315.53625 481.8125 315.8125 C485.58776801 317.21897239 486.7079054 318.75945247 489 322 C489.9793879 323.02019573 490.97895449 324.02149805 492 325 C492.928125 325.9590625 492.928125 325.9590625 493.875 326.9375 C495.9841804 329.0875828 495.9841804 329.0875828 498.625 330.875 C501.44751636 333.40040938 501.96572732 335.41982533 503 339 C503.66 339.33 504.32 339.66 505 340 C505.34022786 341.99883869 505.67329097 343.99890722 506 346 C506.66 346.66 507.32 347.32 508 348 C508.59765625 350.05859375 508.59765625 350.05859375 509.0625 352.4375 C509.58554517 355.06137121 510.15093007 357.45279021 511 360 C510.67 360.66 510.34 361.32 510 362 C510.66 362 511.32 362 512 362 C511.814375 362.9075 511.62875 363.815 511.4375 364.75 C510.82464696 367.7857838 510.82464696 367.7857838 511.46484375 369.85546875 C512.11888475 372.47640676 512.13234443 374.86342229 512.125 377.5625 C512.12757813 378.51253906 512.13015625 379.46257812 512.1328125 380.44140625 C512 383 512 383 511 386 C511.33 386.99 511.66 387.98 512 389 C511.34 389.33 510.68 389.66 510 390 C510.061875 391.1446875 510.061875 391.1446875 510.125 392.3125 C510 395 510 395 508 398 C507.65846063 399.66500443 507.32550502 401.33178677 507 403 C506 405.1875 506 405.1875 505 407 C504.67 407.66 504.34 408.32 504 409 C503.34 409 502.68 409 502 409 C502 409.66 502 410.32 502 411 C501.34 411.66 500.68 412.32 500 413 C499.71125 413.598125 499.4225 414.19625 499.125 414.8125 C493.60663331 425.54265746 481.60954541 433.7968513 471 439 C470.24203125 439.41378906 469.4840625 439.82757813 468.703125 440.25390625 C463.2874302 443.14285173 459.08271408 444.44702599 453 445 C452.67 445.66 452.34 446.32 452 447 C449.911361 447.67375452 448.19636905 448 446 448 C444.845 448.185625 443.69 448.37125 442.5 448.5625 C439 449 439 449 437 448 C437 448.66 437 449.32 437 450 C434.69 449.67 432.38 449.34 430 449 C430 449.66 430 450.32 430 451 C428.989375 450.814375 427.97875 450.62875 426.9375 450.4375 C423.12337611 449.84523286 423.12337611 449.84523286 419.83486938 450.46456909 C415.4179607 451.08126531 411.15642887 451.14009165 406.70458984 451.12939453 C405.34380058 451.13202301 405.34380058 451.13202301 403.95552063 451.13470459 C400.95730667 451.1390998 397.95915207 451.13618589 394.9609375 451.1328125 C392.83997588 451.13348794 390.71901434 451.13445996 388.59805298 451.13571167 C384.13437163 451.13718695 379.67071027 451.13504592 375.20703125 451.13037109 C369.60348228 451.12477684 363.99998192 451.12797482 358.39643478 451.13382339 C332.24776513 451.15680143 306.13385125 450.90932862 280 450 C279.97306425 447.87506859 279.95363372 445.75004088 279.9375 443.625 C279.92589844 442.44164062 279.91429687 441.25828125 279.90234375 440.0390625 C280 437 280 437 281 435 C283.31 435.33 285.62 435.66 288 436 C288 435.34 288 434.68 288 434 C289.175625 434.37125 289.175625 434.37125 290.375 434.75 C297.00105206 435.20696911 302.70346627 431.69042348 308.5 428.75 C312 427 312 427 314 427 C314.28875 426.2575 314.5775 425.515 314.875 424.75 C316 422 316 422 317.06640625 420.21484375 C318.29702896 417.29533296 318.15683266 414.97075738 318.0625 411.8125 C317.9605933 408.14828935 318.01025559 404.65384007 318.4934082 401.02661133 C319.14495905 395.34683537 319.14362707 389.70351814 319.1328125 383.9921875 C319.13376923 382.86732941 319.13472595 381.74247131 319.13571167 380.58352661 C319.13638883 378.21860701 319.13456707 375.85368551 319.13037109 373.48876953 C319.12500623 369.87918923 319.13033707 366.26973278 319.13671875 362.66015625 C319.13605808 360.35416639 319.13477716 358.04817661 319.1328125 355.7421875 C319.13584885 354.13257645 319.13584885 354.13257645 319.13894653 352.490448 C319.12250126 347.21330285 318.90977039 342.19937035 318 337 C317.8033111 335.4386301 317.61436816 333.87623916 317.4375 332.3125 C317.31181641 331.22388672 317.31181641 331.22388672 317.18359375 330.11328125 C316.94854126 327.40767706 317 324.71375175 317 322 C316.34 321.67 315.68 321.34 315 321 C315 320.01 315 319.02 315 318 C314.60884087 314.54476098 314.14423716 311.41468183 313 308.125 C311.90082009 304.69006279 311.58745735 301.53562307 311.34375 297.953125 C311.1520045 295.76944703 311.1520045 295.76944703 309 294 C308.25976679 292.02604477 307.61238899 290.01728138 307 288 C306.73832031 287.15953125 306.47664063 286.3190625 306.20703125 285.453125 C304 278.28286385 304 278.28286385 304 276 C303.34 275.34 302.68 274.68 302 274 C301.835 273.154375 301.67 272.30875 301.5 271.4375 C301.335 270.633125 301.17 269.82875 301 269 C300.34 268.67 299.68 268.34 299 268 C298.60235737 266.01178687 298.27571139 264.00875442 298 262 C297.63143136 259.76832815 297.63143136 259.76832815 297 258 C296.34 257.67 295.68 257.34 295 257 C294.66666667 255 294.33333333 253 294 251 C293.34 250.67 292.68 250.34 292 250 C291.62912499 248.34128344 291.30301319 246.67244489 291 245 C290.00355818 242.21476503 288.92573457 239.47018866 287.83984375 236.71875 C287 234 287 234 287.00390625 231.28125 C287.26804109 228.79744446 287.26804109 228.79744446 285 227 C284.835 225.824375 284.67 224.64875 284.5 223.4375 C284.335 222.303125 284.17 221.16875 284 220 C283.34 219.67 282.68 219.34 282 219 C281.62356881 217.34253554 281.29846127 215.67326321 281 214 C280.38771444 212.15519156 279.74051223 210.32167813 279.0625 208.5 C278.72347656 207.5821875 278.38445312 206.664375 278.03515625 205.71875 C277.36088734 203.94783995 276.65136621 202.18982966 275.90234375 200.44921875 C274.73495164 197.28058303 274.5686037 194.33298005 274.34375 190.98828125 C274.15748857 188.77328395 274.15748857 188.77328395 272 187 C270.86836038 183.54221228 270 180.64741442 270 177 C269.34 176.34 268.68 175.68 268 175 C267.66666667 172.66666667 267.33333333 170.33333333 267 168 C266.34 167.34 265.68 166.68 265 166 C264.66666667 164 264.33333333 162 264 160 C263.34 159.34 262.68 158.68 262 158 C261.3671875 155.90625 261.3671875 155.90625 260.875 153.5 C260.70742188 152.7059375 260.53984375 151.911875 260.3671875 151.09375 C260 149 260 149 260 147 C259.34 146.34 258.68 145.68 258 145 C257.66666667 143 257.33333333 141 257 139 C256.34 138.34 255.68 137.68 255 137 C254.61070799 135.34550895 254.291224 133.67453799 254 132 C253.11777363 128.1452271 252.12605393 124.3781618 250.875 120.625 C250 118 250 118 250 116 C249.34 115.34 248.68 114.68 248 114 C247.835 112.824375 247.67 111.64875 247.5 110.4375 C247.335 109.303125 247.17 108.16875 247 107 C246.34 106.67 245.68 106.34 245 106 C244.4375 103.56640625 244.4375 103.56640625 244 100.5625 C243.50894049 96.29735299 243.50894049 96.29735299 241 93 C240.43479997 90.34462628 240.26211802 87.70855287 240 85 C238.73305337 87.28050393 237.98076928 89.10336512 237.5 91.6875 C237.335 92.450625 237.17 93.21375 237 94 C236.01 94.495 236.01 94.495 235 95 C234.9175 96.0725 234.835 97.145 234.75 98.25 C234.24366852 103.66385201 231.71645249 108.03297823 229.359375 112.859375 C227.69736988 116.69917993 227.31791464 119.86710974 227 124 C226.01 124.495 226.01 124.495 225 125 C224.79737593 126.89115799 224.59759523 128.78267513 224.4140625 130.67578125 C223.81271538 134.05126742 222.38168104 136.88706817 220.9140625 139.96484375 C219.87231445 142.28429133 219.41686628 144.49880231 219 147 C218.35561283 148.67540664 217.68753301 150.34183216 217 152 C216.71125 152.928125 216.4225 153.85625 216.125 154.8125 C215.21449628 157.39226054 214.22922329 159.49207364 212.9375 161.875 C211.41835042 164.78436765 210.69637953 167.17111527 210.375 170.4375 C210.189375 172.2009375 210.189375 172.2009375 210 174 C209.34 174.33 208.68 174.66 208 175 C207.7984507 176.91471834 207.59918649 178.8297176 207.4140625 180.74609375 C206.83597918 183.89283032 205.42910494 186.33753861 203.91015625 189.125 C202.67461296 191.67032523 202.42350337 194.21697785 202 197 C201.01712992 199.00847365 200.01622658 201.00819591 199 203 C197.96139081 206.28892909 197.0908407 209.47766597 196.5 212.875 C196.335 213.57625 196.17 214.2775 196 215 C195.34 215.33 194.68 215.66 194 216 C193.61004898 217.86492402 193.61004898 217.86492402 193.5 220 C193.34375 222.1875 193.34375 222.1875 193 224 C192.34 224.33 191.68 224.66 191 225 C190.73668726 226.97484553 190.47984461 228.95119403 190.28125 230.93359375 C189.93113355 233.5059771 189.07575747 235.64678053 188 238 C187.67 238.99 187.34 239.98 187 241 C184.490217 248.22696549 184.490217 248.22696549 182.375 251.5625 C180.61561816 254.68140418 180.38586726 257.46288341 180 261 C179.5625 263.375 179.5625 263.375 179 265 C178.34 265.33 177.68 265.66 177 266 C176.3823553 267.91631077 176.3823553 267.91631077 176 270.1875 C175.24080186 273.90638466 174.41490799 277.46273003 173 281 C172.34 281.33 171.68 281.66 171 282 C171.0309375 283.1446875 171.0309375 283.1446875 171.0625 284.3125 C171 287 171 287 170 290 C169.78444749 291.3917773 169.59806254 292.78831216 169.4375 294.1875 C169.293125 295.445625 169.14875 296.70375 169 298 C168.34 298 167.68 298 167 298 C167.185625 298.928125 167.37125 299.85625 167.5625 300.8125 C168 304 168 304 167 307 C164.86612465 321.46293296 165.86267477 336.5174199 166.26171875 351.07421875 C166.28574768 351.96333954 166.30977661 352.85246033 166.33453369 353.76852417 C166.4574453 358.27148973 166.58846236 362.77400934 166.73193359 367.27636719 C166.78106748 368.96418855 166.8300641 370.65201392 166.87890625 372.33984375 C166.91947395 373.49343636 166.91947395 373.49343636 166.96086121 374.67033386 C167.36513955 389.36391094 162.68889835 403.10965338 156 416 C155.33136022 417.33234495 154.66446008 418.66556565 154 420 C153 422 153 422 151 422.875 C150.34 423.24625 149.68 423.6175 149 424 C148.63837971 425.32594105 148.30271961 426.65938457 148 428 C147.01 428.33 146.02 428.66 145 429 C144.690625 429.78375 144.38125 430.5675 144.0625 431.375 C142.83492677 434.40782798 141.7176098 435.27061194 139 437 C135.9237224 438.89155715 135.9237224 438.89155715 133.5625 441.5625 C131.16907084 443.83917652 130.1889557 444.64567159 127 445 C127 445.66 127 446.32 127 447 C121.58461538 450.07692308 121.58461538 450.07692308 118.625 449.6875 C118.08875 449.460625 117.5525 449.23375 117 449 C116.67 449.66 116.34 450.32 116 451 C114.14453125 451.78125 114.14453125 451.78125 111.8125 452.5 C110.59240234 452.88285156 110.59240234 452.88285156 109.34765625 453.2734375 C108.57292969 453.51320313 107.79820313 453.75296875 107 454 C105.9275 454.37125 104.855 454.7425 103.75 455.125 C96.72222222 457.36111111 96.72222222 457.36111111 94 456 C94 456.66 94 457.32 94 458 C93.2575 457.814375 92.515 457.62875 91.75 457.4375 C89.14324866 456.83530212 89.14324866 456.83530212 87.19921875 457.46484375 C84.43996226 458.13627917 81.90044516 458.13215749 79.0625 458.125 C78.04285156 458.12757813 77.02320312 458.13015625 75.97265625 458.1328125 C73.19867797 458.00887655 70.7081472 457.57737148 68 457 C67.01 457 66.02 457 65 457 C60.42519751 456.56430452 57.03593903 456.22672498 53 454 C52.195625 453.855625 51.39125 453.71125 50.5625 453.5625 C47.568043 452.90518017 45.60894986 451.59082308 43 450 C41.96875 449.67 40.9375 449.34 39.875 449 C36.8866959 447.96058988 36.11798705 447.20270654 34 445 C32.80348498 444.31234769 31.59364011 443.6476343 30.375 443 C27 441 27 441 26 438 C24.69855198 436.95884159 23.36161311 435.96113866 22 435 C19.98032838 433.22268897 18.83056581 431.71535056 17.4375 429.375 C16.22087094 426.88809625 16.22087094 426.88809625 14 426 C13.4375 424.22265625 13.4375 424.22265625 13 422.0625 C12.39617423 419.09189285 12.21308826 418.21308826 10 416 C9.5859375 414.125 9.5859375 414.125 9.375 412 C9.30023438 411.29875 9.22546875 410.5975 9.1484375 409.875 C9 408 9 408 9 406 C8.34 405.67 7.68 405.34 7 405 C7 404.01 7 403.02 7 402 C6.835 400.845 6.67 399.69 6.5 398.5 C5.61129507 391.63158046 5.4883983 384.77379408 7 378 C7.144375 377.154375 7.28875 376.30875 7.4375 375.4375 C7.99989189 373.0004685 8.70402239 371.13455136 10 369 C10.66 368.67 11.32 368.34 12 368 C12.185625 367.13375 12.185625 367.13375 12.375 366.25 C13.2421254 363.12834856 14.78861695 361.33774779 17 359 C19.0625 358.3125 19.0625 358.3125 21 358 C21.99 357.34 22.98 356.68 24 356 C28.55555556 354.77777778 28.55555556 354.77777778 31 356 C31 355.34 31 354.68 31 354 C33.97 354 36.94 354 40 354 C40 354.66 40 355.32 40 356 C40.5775 355.814375 41.155 355.62875 41.75 355.4375 C44.97840638 354.80975432 47.10485623 355.55242811 50 357 C50.268125 357.598125 50.53625 358.19625 50.8125 358.8125 C51.91500717 361.18617169 51.91500717 361.18617169 54.375 362.875 C57.37440901 365.30309301 59.1121809 367.64387716 61 371 C61 377 61 383 61 389 C60.34 389.33 59.68 389.66 59 390 C58.814375 391.2375 58.814375 391.2375 58.625 392.5 C57.75733462 397.35892613 56.13195969 402.93984206 52.4921875 406.45703125 C50.57524336 408.43921171 49.97787528 410.43165052 49 413 C48.01194241 414.7481019 46.99032764 416.47762514 45.9375 418.1875 C43.86894235 421.5385079 43.86894235 421.5385079 42 425 C43.10063037 428.48532949 44.50481183 431.31998307 47 434 C49.3430809 435.12085312 49.3430809 435.12085312 52 436 C54 437 56 438 58 439 C61.00419641 440.0013988 63.87709365 440.51421457 67 441 C67 441.66 67 442.32 67 443 C67.99 442.67 68.98 442.34 70 442 C72.1649902 441.90514218 74.33293823 441.87011923 76.5 441.875 C77.6446875 441.87242187 78.789375 441.86984375 79.96875 441.8671875 C83 442 83 442 86 443 C86 442.34 86 441.68 86 441 C89.96 440.67 93.92 440.34 98 440 C98 439.01 98 438.02 98 437 C100 436 102 435 104 434 C106.75463658 431.5036106 108.39491528 429.31717509 110 426 C110.4846875 425.55140625 110.969375 425.1028125 111.46875 424.640625 C113.24910347 422.73310343 113.72659177 421.30730216 114.4375 418.8125 C115.65269946 414.85017412 117.23745423 411.35429679 119.23046875 407.7265625 C120.20354846 405.85835586 120.20354846 405.85835586 120 403 C120.25652593 401.49359239 120.55142111 399.99344104 120.875 398.5 C121.03742188 397.7265625 121.19984375 396.953125 121.3671875 396.15625 C122 394 122 394 124 391 C123.34 391 122.68 391 122 391 C122 390.34 122 389.68 122 389 C122.66 389 123.32 389 124 389 C123.814375 388.2575 123.62875 387.515 123.4375 386.75 C122.98988863 383.93644282 123.27346952 382.68361803 124 380 C125.16437703 372.84336343 125.15087568 365.66975224 125.125 358.4375 C125.12886719 357.35275391 125.13273437 356.26800781 125.13671875 355.15039062 C125.12965456 349.33303054 124.87533537 343.7512776 124 338 C123.35219858 333.53736802 123 329.50139882 123 325 C122.70212546 323.51328688 122.36714718 322.03363836 122 320.5625 C121.23460098 317.29607885 120.78227191 314.37478545 121 311 C120.34 310.67 119.68 310.34 119 310 C119 308.68 119 307.36 119 306 C118.6878236 303.35367713 118.6878236 303.35367713 118 301 C117.34 300.67 116.68 300.34 116 300 C115.76852277 298.01590944 115.54119298 296.0311188 115.34765625 294.04296875 C115.1009944 291.82390377 115.1009944 291.82390377 113.5 289.5625 C111.60017736 286.31696965 111.51114678 283.59795924 111.30859375 279.890625 C111.15583984 278.95476562 111.15583984 278.95476562 111 278 C110.34 277.67 109.68 277.34 109 277 C108.62109375 275.0390625 108.62109375 275.0390625 108.4375 272.625 C108.02906787 267.29569662 108.02906787 267.29569662 105 263 C104.62532618 260.95632461 104.49603939 258.94613566 104.34375 256.875 C104.13964634 254.76097714 104.13964634 254.76097714 102 253 C102 252.01 102 251.02 102 250 C101.3507041 248.65812182 100.68268138 247.32520503 100 246 C99.23219204 243.46623375 99 241.68641802 99 239 C98.649375 238.01 98.29875 237.02 97.9375 236 C97 233 97 233 98 230 C97.01 230 96.02 230 95 230 C95.04125 229.2575 95.0825 228.515 95.125 227.75 C95.18931975 225.06134383 95.18931975 225.06134383 94.0625 223.125 C93 221 93 221 92.625 217.875 C92.08034543 214.4981417 91.33387467 212.21498304 90 209.125 C88.52543796 205.66137046 87.69710424 202.68941795 87.375 198.9375 C87.25125 197.638125 87.1275 196.33875 87 195 C86.34 194.67 85.68 194.34 85 194 C84.60299444 190.89613835 84.49115468 187.81247932 84.34375 184.6875 C84.2303125 183.800625 84.116875 182.91375 84 182 C83.34 181.67 82.68 181.34 82 181 C80.82052823 178.11684679 79.98003079 175.75883003 80.0625 172.625 C79.98406491 169.33072625 78.92281683 166.88114745 77.65625 163.8671875 C77 162 77 162 77 159 C76.34 158.67 75.68 158.34 75 158 C75.061875 157.29875 75.12375 156.5975 75.1875 155.875 C75.17988059 152.89490123 75.17988059 152.89490123 73.5625 150.125 C71.82104283 146.64208565 71.52133831 143.84487003 71 140 C70.28926168 137.69010047 69.49386969 135.42008638 68.69140625 133.140625 C67.82761737 130.46629558 67.45085603 127.76954419 67 125 C66.34870203 123.65909241 65.68486725 122.32407669 65 121 C65 120.01 65 119.02 65 118 C64.484375 117.01 63.96875 116.02 63.4375 115 C62 112 62 112 63 109 C62.01 108.01 62.01 108.01 61 107 C60.61984012 104.4036808 60.49404686 101.8337665 60.34375 99.21484375 C60.2303125 98.48394531 60.116875 97.75304687 60 97 C59.01 96.505 59.01 96.505 58 96 C58 95.01 58 94.02 58 93 C57.67958603 90.39719432 57.67958603 90.39719432 57 88 C56.01 87.505 56.01 87.505 55 87 C54.47265625 85.03125 54.47265625 85.03125 54.0625 82.5 C53.42259869 78.92167188 52.60010525 75.60974237 51.375 72.1875 C50.2517308 69.00396317 49.66935472 66.41666791 50 63 C49.01 62.505 49.01 62.505 48 62 C47.5 60 47.5 60 47 57 C45.77572626 49.95576595 45.77572626 49.95576595 42 44 C42 43.34 42 42.68 42 42 C41.01 41.505 41.01 41.505 40 41 C39.63451555 39.67511887 39.3062434 38.33981486 39 37 C36.5381397 30.4350392 30.28604679 28.01266992 24.3515625 25.16796875 C22 24 22 24 19.375 22.25 C14.88465216 19.88665903 10.0146316 20 5 20 C5 19.34 5 18.68 5 18 C3.35 17.67 1.7 17.34 0 17 C0 11.39 0 5.78 0 0 Z M230 39 C231 41 231 41 231 41 Z M217 145 C218 147 218 147 218 147 Z M398 181 C398 181.66 398 182.32 398 183 C397.34 183 396.68 183 396 183 C395.690625 183.94875 395.38125 184.8975 395.0625 185.875 C394 189 394 189 393 191 C393.33 191.66 393.66 192.32 394 193 C393.01 193.495 393.01 193.495 392 194 C392.33 195.32 392.66 196.64 393 198 C392.01 198.33 391.02 198.66 390 199 C390.33 200.32 390.66 201.64 391 203 C390.34 203.33 389.68 203.66 389 204 C388.61781233 205.65614657 388.28604898 207.32457024 388 209 C387.67 209.66 387.34 210.32 387 211 C387.33 211.66 387.66 212.32 388 213 C387.01 213.495 387.01 213.495 386 214 C385.06345058 217.3605597 384.28267807 220.71250828 383.53515625 224.1171875 C383 226 383 226 381.5 228.3125 C379.68968725 231.555977 379.51381365 234.33907771 379 238 C378.46375 239.051875 377.9275 240.10375 377.375 241.1875 C375.75658023 243.84136451 375.75658023 243.84136451 376.3125 246.375 C376.539375 246.91125 376.76625 247.4475 377 248 C376.01 248.495 376.01 248.495 375 249 C373.89459074 251.78918149 373.89459074 251.78918149 374 254 C373.835 254.639375 373.67 255.27875 373.5 255.9375 C372.88219999 258.13221824 372.88219999 258.13221824 373 261 C372.01 261.495 372.01 261.495 371 262 C371.33 263.32 371.66 264.64 372 266 C371.01 266.495 371.01 266.495 370 267 C370 268.32 370 269.64 370 271 C369.01 271.495 369.01 271.495 368 272 C368.33 272.66 368.66 273.32 369 274 C368.01 274.495 368.01 274.495 367 275 C366.45091494 278.01996783 366 280.92619395 366 284 C365.01 284.495 365.01 284.495 364 285 C364.33 286.32 364.66 287.64 365 289 C364.01 289.495 364.01 289.495 363 290 C365.06543734 292.06543734 369.38531703 291.30590232 372.234375 291.38671875 C373.06455139 291.41224319 373.89472778 291.43776764 374.75006104 291.46406555 C376.51200935 291.5161824 378.27403933 291.56559599 380.03613281 291.61254883 C382.72508463 291.68681189 385.41315188 291.7775688 388.1015625 291.86914062 C389.81247139 291.91768565 391.52340864 291.96524329 393.234375 292.01171875 C394.03663513 292.04077805 394.83889526 292.06983734 395.66546631 292.09977722 C400.01091745 292.19701902 402.98180483 291.82333402 407 290 C408.32 290 409.64 290 411 290 C411 289.34 411 288.68 411 288 C411.5775 288.226875 412.155 288.45375 412.75 288.6875 C415.09419417 289.26684374 415.09419417 289.26684374 417.0625 287.625 C417.701875 287.08875 418.34125 286.5525 419 286 C419.99 285.67 420.98 285.34 422 285 C422 284.34 422 283.68 422 283 C423.1446875 283.0928125 423.1446875 283.0928125 424.3125 283.1875 C426.9883559 283.2429006 426.9883559 283.2429006 428.6875 281.75 C430.06614095 280.03560529 430.06614095 280.03560529 430.9375 278 C432.55803454 274.94958204 434.96614167 273.51692917 438 272 C439.16190327 270.19263775 439.16190327 270.19263775 440.1875 268.0625 C440.55230469 267.35222656 440.91710937 266.64195312 441.29296875 265.91015625 C441.64294922 264.96462891 441.64294922 264.96462891 442 264 C441.67 263.34 441.34 262.68 441 262 C441.99 261.67 442.98 261.34 444 261 C444 259.02 444 257.04 444 255 C444.66 254.67 445.32 254.34 446 254 C445.979375 253.21625 445.95875 252.4325 445.9375 251.625 C446 249 446 249 447 247 C449.13230901 236.33845496 449.16131425 224.10604889 445 214 C445.495 213.01 445.495 213.01 446 212 C445.34 212 444.68 212 444 212 C444.0928125 210.63875 444.0928125 210.63875 444.1875 209.25 C443.9786673 205.63023316 443.36036527 204.6327151 441 202 C439 199 439 199 438.0625 196.875 C437.08091355 194.65504271 437.08091355 194.65504271 434 194 C432.85871486 192.85871486 431.72011794 191.71469087 430.58984375 190.5625 C426.65342989 186.84012282 423.61331194 185.32096866 418.2890625 184.43359375 C414.67062144 183.74818938 411.41279647 182.36511859 408 181 C408 181.66 408 182.32 408 183 C407.46375 182.67 406.9275 182.34 406.375 182 C403.4608939 180.77300796 401.13132292 180.85766714 398 181 Z M447 221 C448 224 448 224 448 224 Z M495 225 C495 226.65 495 228.3 495 230 C495.33 230 495.66 230 496 230 C496 228.35 496 226.7 496 225 C495.67 225 495.34 225 495 225 Z M447 242 C448 245 448 245 448 245 Z M173 273 C174 275 174 275 174 275 Z M166 301 C167 304 167 304 167 304 Z M361 308 C360.89932403 311.08387602 360.86385725 314.14539821 360.87060547 317.22973633 C360.86885315 318.19881424 360.86710083 319.16789215 360.86529541 320.16633606 C360.86087372 323.38825237 360.86381668 326.61011432 360.8671875 329.83203125 C360.86651439 332.06304434 360.8655443 334.29405735 360.86428833 336.52507019 C360.86281079 341.21016129 360.86496709 345.89523337 360.86962891 350.58032227 C360.87531635 356.58961158 360.87205378 362.59885615 360.86605644 368.60814381 C360.8624439 373.21917559 360.86359279 377.83019676 360.86618423 382.44122887 C360.8668521 384.65683688 360.86602998 386.87244585 360.86370468 389.08805275 C360.86116793 392.18608782 360.86503373 395.28405041 360.87060547 398.38208008 C360.86858124 399.30120178 360.86655701 400.22032349 360.86447144 401.16729736 C360.86729126 402.01276627 360.87011108 402.85823517 360.87301636 403.72932434 C360.87339338 404.46177274 360.87377041 405.19422113 360.87415886 405.94886494 C360.93448053 408.0377733 360.93448053 408.0377733 361.57043648 410.14191723 C362 412 362 412 361 414 C361.66 414 362.32 414 363 414 C362.773125 414.5775 362.54625 415.155 362.3125 415.75 C361.75005516 418.0523474 361.75005516 418.0523474 363.1875 419.9375 C363.785625 420.618125 364.38375 421.29875 365 422 C365.639375 422.86625 366.27875 423.7325 366.9375 424.625 C369.7097641 427.81730411 372.05505251 428.6850175 376 430 C376.66 430.66 377.32 431.32 378 432 C380.10820797 431.6814823 380.10820797 431.6814823 382 431 C382.495 431.99 382.495 431.99 383 433 C383.99 432.505 383.99 432.505 385 432 C385.495 432.99 385.495 432.99 386 434 C390.67554314 435.46574567 395.65021374 435.14728079 400.5 435.125 C401.34175781 435.12886719 402.18351562 435.13273438 403.05078125 435.13671875 C409.1001095 435.17760052 409.1001095 435.17760052 415 434 C415.33 433.34 415.66 432.68 416 432 C416.33 432.66 416.66 433.32 417 434 C420.96 433.01 420.96 433.01 425 432 C425 431.34 425 430.68 425 430 C428.75 428.875 428.75 428.875 431 430 C431.391875 429.54625 431.78375 429.0925 432.1875 428.625 C434.30832487 426.72357081 436.33042235 425.93795972 439 425 C439 424.34 439 423.68 439 423 C439.94875 422.608125 440.8975 422.21625 441.875 421.8125 C445.43437401 419.74806307 445.72113551 418.73821927 447 415 C447.99 414.67 448.98 414.34 450 414 C450 413.34 450 412.68 450 412 C450.66 411.34 451.32 410.68 452 410 C453.0193931 407.2416422 453.89054224 404.57856242 454.4375 401.6875 C454.623125 401.130625 454.80875 400.57375 455 400 C455.99 399.67 456.98 399.34 458 399 C458 397.02 458 395.04 458 393 C458.66 392.67 459.32 392.34 460 392 C459.67 390.35 459.34 388.7 459 387 C459.66 387 460.32 387 461 387 C461.06058594 386.24074219 461.12117188 385.48148437 461.18359375 384.69921875 C461.30927734 383.20841797 461.30927734 383.20841797 461.4375 381.6875 C461.55931641 380.20830078 461.55931641 380.20830078 461.68359375 378.69921875 C462 376 462 376 463 373 C463.44402869 365.64740733 463.03044232 358.10654813 461 351 C460.66666667 349.66666667 460.33333333 348.33333333 460 347 C459.34 347 458.68 347 458 347 C458.33 346.01 458.66 345.02 459 344 C458.11680706 340.84979639 458.11680706 340.84979639 457 338 C456.34 338 455.68 338 455 338 C455.495 336.515 455.495 336.515 456 335 C455.54625 334.5875 455.0925 334.175 454.625 333.75 C453 332 453 332 452.125 330.125 C450.5763822 327.19983304 448.38742817 325.27096826 446 323 C445.484375 322.4225 444.96875 321.845 444.4375 321.25 C442.66614856 319.7096944 441.27169468 319.5345164 439 319 C434.22222222 316.44444444 434.22222222 316.44444444 433 314 C431.14255793 313.38932856 431.14255793 313.38932856 429 313 C428.29875 312.814375 427.5975 312.62875 426.875 312.4375 C424.99628047 311.92425679 424.99628047 311.92425679 423 312 C422.505 311.01 422.505 311.01 422 310 C420.06508777 309.73311555 418.1278388 309.47620908 416.18359375 309.2890625 C414 309 414 309 410.4375 307.875 C406.57770592 306.89250696 403.88153731 307.30132328 400 308 C399.505 307.505 399.505 307.505 399 307 C396.27275721 306.89900512 393.57137477 306.86029471 390.84375 306.8671875 C390.02628296 306.86623077 389.20881592 306.86527405 388.36657715 306.86428833 C386.63484622 306.86360655 384.90311276 306.86546071 383.17138672 306.86962891 C380.51133518 306.87497721 377.8514525 306.86968388 375.19140625 306.86328125 C373.51302046 306.86394203 371.83463477 306.8652232 370.15625 306.8671875 C369.35521851 306.86516327 368.55418701 306.86313904 367.72888184 306.86105347 C364.06417699 306.52786332 364.06417699 306.52786332 361 308 Z M318 331 C319 333 319 333 319 333 Z M125 340 C126 343 126 343 126 343 Z M34 355 C38 356 38 356 38 356 Z M125 376 C126 379 126 379 126 379 Z M156 411 C157 413 157 413 157 413 Z " fill="#040404" transform="translate(0,27)"/>
<path d="M0 0 C3 1 3 1 3 1 Z " fill="#8E8E8E" transform="translate(399,317)"/>
<path d="M0 0 C3 1 3 1 3 1 Z " fill="#898989" transform="translate(0,45)"/>
<path d="M0 0 C2 1 2 1 2 1 Z " fill="#525252" transform="translate(109,480)"/>
<path d="" fill="#8D8D8D" transform="translate(0,0)"/>
<path d="" fill="#717171" transform="translate(0,0)"/>
<path d="" fill="#8A8A8A" transform="translate(0,0)"/>
<path d="" fill="#717171" transform="translate(0,0)"/>
<path d="" fill="#888888" transform="translate(0,0)"/>
<path d="" fill="#7A7A7A" transform="translate(0,0)"/>
<path d="M0 0 C2 1 2 1 2 1 Z " fill="#8D8D8D" transform="translate(445,327)"/>
<path d="" fill="#737373" transform="translate(0,0)"/>
<path d="M0 0 C2 1 2 1 2 1 Z " fill="#868686" transform="translate(430,323)"/>
<path d="M0 0 C2 1 2 1 2 1 Z " fill="#717171" transform="translate(441,320)"/>
<path d="" fill="#6A6A6A" transform="translate(0,0)"/>
<path d="" fill="#7E7E7E" transform="translate(0,0)"/>
<path d="" fill="#838383" transform="translate(0,0)"/>
<path d="" fill="#8C8C8C" transform="translate(0,0)"/>
<path d="" fill="#686868" transform="translate(0,0)"/>
<path d="" fill="#737373" transform="translate(0,0)"/>
<path d="" fill="#737373" transform="translate(0,0)"/>
<path d="" fill="#949494" transform="translate(0,0)"/>
<path d="" fill="#6A6A6A" transform="translate(0,0)"/>
<path d="" fill="#6B6B6B" transform="translate(0,0)"/>
<path d="" fill="#797979" transform="translate(0,0)"/>
<path d="" fill="#575757" transform="translate(0,0)"/>
<path d="" fill="#626262" transform="translate(0,0)"/>
<path d="" fill="#838383" transform="translate(0,0)"/>
<path d="" fill="#898989" transform="translate(0,0)"/>
<path d="" fill="#686868" transform="translate(0,0)"/>
<path d="" fill="#777777" transform="translate(0,0)"/>
<path d="" fill="#8C8C8C" transform="translate(0,0)"/>
<path d="" fill="#767676" transform="translate(0,0)"/>
<path d="" fill="#7F7F7F" transform="translate(0,0)"/>
<path d="" fill="#969696" transform="translate(0,0)"/>
<path d="" fill="#848484" transform="translate(0,0)"/>
<path d="" fill="#969696" transform="translate(0,0)"/>
<path d="" fill="#7B7B7B" transform="translate(0,0)"/>
<path d="" fill="#6E6E6E" transform="translate(0,0)"/>
<path d="" fill="#767676" transform="translate(0,0)"/>
<path d="" fill="#7E7E7E" transform="translate(0,0)"/>
<path d="" fill="#909090" transform="translate(0,0)"/>
<path d="" fill="#8B8B8B" transform="translate(0,0)"/>
<path d="" fill="#838383" transform="translate(0,0)"/>
<path d="" fill="#868686" transform="translate(0,0)"/>
<path d="" fill="#6F6F6F" transform="translate(0,0)"/>
<path d="" fill="#767676" transform="translate(0,0)"/>
<path d="" fill="#8D8D8D" transform="translate(0,0)"/>
<path d="" fill="#818181" transform="translate(0,0)"/>
<path d="" fill="#868686" transform="translate(0,0)"/>
<path d="" fill="#979797" transform="translate(0,0)"/>
<path d="" fill="#898989" transform="translate(0,0)"/>
<path d="" fill="#7D7D7D" transform="translate(0,0)"/>
<path d="" fill="#7E7E7E" transform="translate(0,0)"/>
<path d="" fill="#8D8D8D" transform="translate(0,0)"/>
<path d="" fill="#7D7D7D" transform="translate(0,0)"/>
<path d="" fill="#737373" transform="translate(0,0)"/>
<path d="M0 0 C2 1 2 1 2 1 Z " fill="#646464" transform="translate(18,49)"/>
<path d="M0 0 C2 1 2 1 2 1 Z " fill="#999999" transform="translate(386,48)"/>
<path d="M0 0 C2 1 2 1 2 1 Z " fill="#838383" transform="translate(109,48)"/>
<path d="" fill="#939393" transform="translate(0,0)"/>
<path d="" fill="#9F9F9F" transform="translate(0,0)"/>
<path d="" fill="#AAAAAA" transform="translate(0,0)"/>
<path d="" fill="#808080" transform="translate(0,0)"/>
<path d="" fill="#666666" transform="translate(0,0)"/>
<path d="" fill="#787878" transform="translate(0,0)"/>
<path d="" fill="#BABABA" transform="translate(0,0)"/>
<path d="" fill="#606060" transform="translate(0,0)"/>
<path d="" fill="#7C7C7C" transform="translate(0,0)"/>
<path d="" fill="#A1A1A1" transform="translate(0,0)"/>
<path d="" fill="#B0B0B0" transform="translate(0,0)"/>
<path d="" fill="#B8B8B8" transform="translate(0,0)"/>
<path d="" fill="#737373" transform="translate(0,0)"/>
<path d="" fill="#6D6D6D" transform="translate(0,0)"/>
<path d="" fill="#5E5E5E" transform="translate(0,0)"/>
<path d="" fill="#676767" transform="translate(0,0)"/>
<path d="" fill="#727272" transform="translate(0,0)"/>
<path d="" fill="#C4C4C4" transform="translate(0,0)"/>
<path d="" fill="#757575" transform="translate(0,0)"/>
<path d="" fill="#686868" transform="translate(0,0)"/>
<path d="" fill="#818181" transform="translate(0,0)"/>
<path d="" fill="#B7B7B7" transform="translate(0,0)"/>
<path d="" fill="#8A8A8A" transform="translate(0,0)"/>
<path d="" fill="#767676" transform="translate(0,0)"/>
<path d="" fill="#8A8A8A" transform="translate(0,0)"/>
<path d="" fill="#909090" transform="translate(0,0)"/>
<path d="" fill="#BEBEBE" transform="translate(0,0)"/>
<path d="" fill="#828282" transform="translate(0,0)"/>
<path d="" fill="#666666" transform="translate(0,0)"/>
<path d="" fill="#737373" transform="translate(0,0)"/>
<path d="" fill="#7B7B7B" transform="translate(0,0)"/>
<path d="" fill="#949494" transform="translate(0,0)"/>
<path d="" fill="#C0C0C0" transform="translate(0,0)"/>
<path d="" fill="#8C8C8C" transform="translate(0,0)"/>
<path d="" fill="#8D8D8D" transform="translate(0,0)"/>
<path d="" fill="#7C7C7C" transform="translate(0,0)"/>
<path d="" fill="#969696" transform="translate(0,0)"/>
<path d="" fill="#A5A5A5" transform="translate(0,0)"/>
<path d="" fill="#6A6A6A" transform="translate(0,0)"/>
<path d="" fill="#B1B1B1" transform="translate(0,0)"/>
<path d="" fill="#969696" transform="translate(0,0)"/>
<path d="" fill="#B6B6B6" transform="translate(0,0)"/>
<path d="" fill="#878787" transform="translate(0,0)"/>
<path d="" fill="#898989" transform="translate(0,0)"/>
<path d="" fill="#707070" transform="translate(0,0)"/>
<path d="" fill="#6F6F6F" transform="translate(0,0)"/>
<path d="" fill="#7D7D7D" transform="translate(0,0)"/>
<path d="" fill="#7E7E7E" transform="translate(0,0)"/>
<path d="" fill="#7D7D7D" transform="translate(0,0)"/>
<path d="" fill="#989898" transform="translate(0,0)"/>
<path d="" fill="#939393" transform="translate(0,0)"/>
<path d="" fill="#757575" transform="translate(0,0)"/>
<path d="" fill="#909090" transform="translate(0,0)"/>
<path d="" fill="#969696" transform="translate(0,0)"/>
<path d="" fill="#737373" transform="translate(0,0)"/>
<path d="" fill="#8D8D8D" transform="translate(0,0)"/>
<path d="" fill="#858585" transform="translate(0,0)"/>
<path d="" fill="#6B6B6B" transform="translate(0,0)"/>
<path d="" fill="#9D9D9D" transform="translate(0,0)"/>
<path d="" fill="#929292" transform="translate(0,0)"/>
<path d="" fill="#656565" transform="translate(0,0)"/>
<path d="" fill="#8C8C8C" transform="translate(0,0)"/>
<path d="" fill="#909090" transform="translate(0,0)"/>
<path d="" fill="#666666" transform="translate(0,0)"/>
<path d="" fill="#939393" transform="translate(0,0)"/>
<path d="" fill="#868686" transform="translate(0,0)"/>
<path d="" fill="#9E9E9E" transform="translate(0,0)"/>
<path d="" fill="#747474" transform="translate(0,0)"/>
<path d="" fill="#878787" transform="translate(0,0)"/>
<path d="" fill="#7F7F7F" transform="translate(0,0)"/>
<path d="" fill="#636363" transform="translate(0,0)"/>
<path d="" fill="#9E9E9E" transform="translate(0,0)"/>
<path d="" fill="#AEAEAE" transform="translate(0,0)"/>
<path d="" fill="#A1A1A1" transform="translate(0,0)"/>
<path d="" fill="#828282" transform="translate(0,0)"/>
<path d="" fill="#919191" transform="translate(0,0)"/>
<path d="" fill="#A1A1A1" transform="translate(0,0)"/>
<path d="" fill="#9D9D9D" transform="translate(0,0)"/>
<path d="" fill="#A3A3A3" transform="translate(0,0)"/>
<path d="" fill="#818181" transform="translate(0,0)"/>
<path d="" fill="#666666" transform="translate(0,0)"/>
<path d="" fill="#747474" transform="translate(0,0)"/>
<path d="" fill="#7A7A7A" transform="translate(0,0)"/>
<path d="" fill="#5E5E5E" transform="translate(0,0)"/>
<path d="" fill="#BABABA" transform="translate(0,0)"/>
<path d="" fill="#7E7E7E" transform="translate(0,0)"/>
<path d="" fill="#838383" transform="translate(0,0)"/>
<path d="" fill="#848484" transform="translate(0,0)"/>
<path d="" fill="#676767" transform="translate(0,0)"/>
<path d="" fill="#B1B1B1" transform="translate(0,0)"/>
<path d="" fill="#838383" transform="translate(0,0)"/>
<path d="" fill="#8B8B8B" transform="translate(0,0)"/>
<path d="" fill="#878787" transform="translate(0,0)"/>
<path d="" fill="#9F9F9F" transform="translate(0,0)"/>
</svg>
