<?xml version="1.0" encoding="UTF-8"?>
<svg version="1.1" xmlns="http://www.w3.org/2000/svg" width="781" height="655">
<path d="M0 0 C257.73 0 515.46 0 781 0 C781 216.15 781 432.3 781 655 C523.27 655 265.54 655 0 655 C0 438.85 0 222.7 0 0 Z " fill="#FFFFFF" transform="translate(0,0)"/>
<path d="M0 0 C59.4 0 118.8 0 180 0 C180 7.59 180 15.18 180 23 C177.01259766 23.27263672 177.01259766 23.27263672 173.96484375 23.55078125 C147.71437917 24.22406043 147.71437917 24.22406043 125.29104614 34.76309586 C121.28419411 41.70548437 125.58829372 53.3182389 127.48043823 60.56856918 C127.81947174 61.81727924 128.15850525 63.0659893 128.5078125 64.35253906 C128.86777634 65.70815951 129.22706409 67.06395964 129.58572388 68.41992569 C133.31094484 82.42634741 137.27979153 96.36603233 141.28252792 110.29519939 C142.30153494 113.8454248 143.31520763 117.39717283 144.3293457 120.9487915 C146.88158275 129.88385999 149.44042546 138.81703117 152 147.75 C154.7937461 157.50045032 157.58627117 167.25124152 160.37114334 177.00423074 C161.57186604 181.20846151 162.77639831 185.41157568 163.98392582 189.61385679 C164.54936218 191.58382912 165.11300235 193.55430447 165.67582703 195.52502441 C166.36113786 197.92458899 167.04930247 200.32334103 167.74079895 202.72113037 C168.04056137 203.77429443 168.34032379 204.8274585 168.64916992 205.91253662 C169.04286018 207.28599054 169.04286018 207.28599054 169.44450378 208.68719101 C170 211 170 211 170 214 C194.42 213.67 218.84 213.34 244 213 C247.37476563 202.86410156 250.74953125 192.72820312 254.2265625 182.28515625 C256.39566341 175.77272979 258.56484431 169.26033015 260.734375 162.74804688 C264.16007812 152.46506132 267.58549144 142.18198002 271.00878906 131.89819336 C294.01851546 62.77741304 294.01851546 62.77741304 302.78701782 37.28639221 C303.1541731 36.21895546 303.1541731 36.21895546 303.52874565 35.12995434 C303.99478247 33.77568703 304.46126889 32.42157432 304.92827034 31.06763935 C306.19430503 27.38665581 307.43450723 23.69822061 308.65313721 20.00125122 C308.92803797 19.16844918 309.20293873 18.33564714 309.48616982 17.47760868 C310.01813668 15.86200841 310.5474594 14.2455345 311.07381248 12.62809658 C312.89017692 7.10982308 312.89017692 7.10982308 314 6 C323.9 6 333.8 6 344 6 C378.155 108.465 378.155 108.465 413 213 C438.74 213.33 464.48 213.66 491 214 C491.66 210.7 492.32 207.4 493 204 C493.52563422 201.88087393 494.07519983 199.7674223 494.65722656 197.66308594 C494.97275482 196.51481827 495.28828308 195.3665506 495.6133728 194.18348694 C495.95236603 192.96278 496.29135925 191.74207306 496.640625 190.484375 C497.00369639 189.16611798 497.36636688 187.84775048 497.72866821 186.52928162 C498.49939631 183.72576043 499.27175141 180.92269528 500.04534912 178.1199646 C502.09241943 170.69934448 504.12145269 163.27378402 506.1484375 155.84765625 C506.45573729 154.72193175 506.45573729 154.72193175 506.76924515 153.57346535 C510.58191326 139.59841456 514.33062606 125.6076624 517.98669434 111.59069824 C518.56925388 109.35884754 519.15421338 107.1276216 519.74182129 104.89709473 C530.09844989 73.35121654 530.09844989 73.35121654 528 42 C514.7644144 26.1541481 489.18298786 24.96748593 470 23 C470 15.41 470 7.82 470 0 C522.14 0 574.28 0 628 0 C628 7.59 628 15.18 628 23 C625.793125 23.391875 623.58625 23.78375 621.3125 24.1875 C602.11982389 27.89138657 585.14941014 36.94339073 573.1875 52.625 C563.46062308 68.09485667 559.22135485 86.68208241 554.03832626 104.03351212 C552.91388699 107.79079743 551.77949359 111.54507381 550.64575195 115.29956055 C549.22553117 120.00486381 547.80623147 124.71043677 546.39112854 129.4172821 C542.9354188 140.9113215 539.45450812 152.39750922 535.95703125 163.87890625 C535.71251724 164.68161076 535.46800323 165.48431526 535.21607971 166.31134415 C534.01062033 170.26825275 532.80476358 174.22504009 531.59869385 178.1817627 C529.55315276 184.89308781 527.51084395 191.60539656 525.46842003 198.31767082 C524.51057015 201.46548202 523.5525195 204.6132321 522.59448242 207.76098633 C522.28475998 208.77864578 521.97503754 209.79630524 521.65592957 210.84480286 C521.43947281 211.55601791 521.22301605 212.26723297 521 213 C521.91275192 213.05403992 522.82550385 213.10807983 523.76591492 213.16375732 C527.20340383 213.36872216 530.64070772 213.57640139 534.07792664 213.78582764 C535.55603248 213.87534957 537.03420133 213.96383817 538.51243591 214.0512085 C570.00374559 215.91528602 602.96645283 222.00264582 625.2578125 246.4765625 C637.19518855 260.2944965 642.42948827 275.13260315 642.25 293.375 C642.24178223 294.39086182 642.23356445 295.40672363 642.22509766 296.45336914 C641.89228611 318.75353237 634.50732643 337.22864933 618.53271484 352.93652344 C601.80704517 368.8151571 580.1608974 378.1308735 557.90625 383.359375 C555.79662959 383.81893474 555.79662959 383.81893474 555 386 C555.82757812 386.07476562 556.65515625 386.14953125 557.5078125 386.2265625 C586.69637903 389.44171778 615.81595473 400.2328143 637 421 C637.80308594 421.76570313 638.60617187 422.53140625 639.43359375 423.3203125 C658.99341852 443.74350853 662.72735529 466.33358783 662.13623047 493.73828125 C661.23145892 515.40091199 648.70939273 536.37592212 633 550.875 C628.22576727 554.94495927 623.28111574 558.61583675 618 562 C617.0203125 562.63679687 616.040625 563.27359375 615.03125 563.9296875 C590.33257085 579.04292688 562.8367664 583.17367224 534.42333984 583.11352539 C532.54996746 583.11324296 530.67659497 583.11340234 528.80322266 583.1139679 C523.74198298 583.11425369 518.68076721 583.10839219 513.61953306 583.10139394 C508.32111452 583.09512411 503.02269537 583.09455373 497.72427368 583.09336853 C487.7018827 583.09026589 477.67950269 583.08206693 467.65711653 583.07201904 C456.24235118 583.06082471 444.82758529 583.05533909 433.41281581 583.05032361 C409.94187093 583.0398834 386.47093654 583.0221022 363 583 C363 577.06 363 571.12 363 565 C364.52109375 564.81824219 366.0421875 564.63648438 367.609375 564.44921875 C388.77553993 562.73112563 388.77553993 562.73112563 407 553 C410.33149312 548.6412965 412.05078546 544.07655574 412.33558655 538.62240601 C412.38329193 537.7237425 412.43099731 536.825079 412.48014832 535.89918327 C412.52674088 534.91199869 412.57333344 533.92481411 412.62133789 532.90771484 C412.67211487 531.86140963 412.72289185 530.81510441 412.77520752 529.73709297 C413.42659624 515.62261348 413.81872447 501.50178054 414.0625 487.375 C414.07458496 486.68446942 414.08666992 485.99393885 414.09912109 485.2824831 C414.79610926 443.66163061 411.40932319 406.42468867 397 366.875 C396.63199657 365.86477783 396.26399315 364.85455566 395.8848381 363.8137207 C391.71816524 352.45681137 387.29916976 341.20984084 382.76703167 329.9947052 C378.83335705 320.19722052 375.59228963 310.20528546 372.47814941 300.11981201 C371.06289745 295.56656434 369.57128004 291.0385759 368.0859375 286.5078125 C367.45666282 284.57846452 366.82743326 282.64910181 366.19824219 280.71972656 C361.52483465 266.41842975 356.80916549 252.13093297 352.1030426 237.84037781 C349.57615284 230.16713951 347.04973696 222.49374516 344.5234375 214.8203125 C344.24780975 213.98311676 343.97218201 213.14592102 343.6882019 212.28335571 C338.49758211 196.51665066 333.31289705 180.74800546 328.1385498 164.97595215 C327.31418146 162.46319979 326.4893179 159.95061181 325.66418457 157.43811035 C320.36970358 141.31513807 315.14770632 125.17045184 310 109 C306.42783583 117.50070814 303.49115547 126.19757261 300.5625 134.93359375 C300.03673169 136.49464471 299.5106836 138.05560146 298.984375 139.61647034 C297.59907699 143.7268788 296.21697906 147.83835552 294.83575439 151.95013428 C292.66391649 158.41394134 290.48761058 164.87624628 288.3109436 171.3384285 C287.7704348 172.9431816 287.23004981 174.54797641 286.68978882 176.15281296 C282.1305416 189.69361147 277.51689693 203.21527461 272.86914062 216.72593689 C270.80425692 222.72921138 268.74180212 228.73252703 266.74520874 234.75895691 C265.07684567 239.77617333 263.37196228 244.78119887 261.67578125 249.7890625 C261.25729416 251.02506195 260.83880707 252.2610614 260.40763855 253.53451538 C259.04296813 257.56480423 257.67775435 261.59490893 256.3125 265.625 C255.83951755 267.02132139 255.36653579 268.417643 254.89355469 269.81396484 C248.7737472 287.87984744 242.6467891 305.94327637 236.5 324 C236.20976959 324.85281555 235.91953918 325.7056311 235.62051392 326.58428955 C235.04957717 328.26164713 234.47716956 329.93850476 233.90332031 331.61486816 C233.31215712 333.35881614 232.731832 335.10646872 232.16137695 336.8572998 C230.49169566 341.91644287 228.66848961 346.84707269 226.56694126 351.7396946 C214.51990619 380.01601673 214.2842913 406.9678131 214.76037598 437.36517334 C214.86529399 444.93315308 214.88333023 452.50177929 214.90924358 460.07037163 C214.93011527 465.94468618 214.96455772 471.81761609 215.04560852 477.69143677 C215.282639 497.76205543 215.282639 497.76205543 213 507 C212.83477341 507.69563553 212.66954681 508.39127106 212.49931335 509.10798645 C205.37696048 536.72282829 188.55690938 561.03151555 164.4375 576.5625 C145.49361917 587.2361045 126.68312219 592.17639607 104.875 592.1875 C103.63234375 592.19974609 102.3896875 592.21199219 101.109375 592.22460938 C74.61688991 592.2660903 50.36860058 583.88452452 31.125 565.4375 C13.45499731 546.660461 8.39243054 524.53254438 8.71875 499.41015625 C9.12461945 487.6906758 13.7323899 475.50382753 22 467 C31.62201395 459.90247143 41.3673969 458.94324509 53 460 C61.2746394 461.57707241 67.49515637 465.67114652 73 472 C78.76553864 480.95974287 78.99022167 490.68704111 78 501 C76.9003758 505.67083365 75.15219688 509.72172513 73 514 C72.71060547 514.58313965 72.42121094 515.1662793 72.12304688 515.76708984 C68.16407899 523.67872152 63.73388356 531.30647584 59.05761719 538.81396484 C54.70013997 545.55744844 54.70013997 545.55744844 53.0625 553.1875 C54.30005734 555.58011085 56.07506966 557.13716418 58 559 C58 559.66 58 560.32 58 561 C59.10601562 561.40412109 59.10601562 561.40412109 60.234375 561.81640625 C62.8939588 562.95461796 64.91998365 564.24176588 67.25 565.9375 C80.44169067 574.93682309 98.96341797 574.71058202 114.28857422 572.69970703 C126.49413805 570.27097 136.78469241 562.36214939 143.87890625 552.34765625 C167.01637075 515.11782676 165.87891713 446.8142829 156.4765501 405.10826111 C151.93744731 385.9399751 145.90944094 367.1335763 139.91055965 348.38231659 C136.68106096 338.28055388 133.67132895 328.13492137 130.828125 317.91796875 C130.6262281 317.1928541 130.42433121 316.46773945 130.21631622 315.72065163 C129.20699349 312.09066314 128.2020393 308.45948403 127.19909668 304.82772827 C125.3962314 298.30791546 123.55295352 291.79948818 121.71387482 285.28981972 C120.67194439 281.59999503 119.6327326 277.90940565 118.59375 274.21875 C118.38383549 273.47310193 118.17392097 272.72745386 117.95764542 271.9592104 C113.70449826 256.84698465 109.47011984 241.7294795 105.23249435 226.61289597 C95.07301127 190.37279088 84.90298205 154.13570225 74.67059135 117.91610432 C73.39333563 113.39444653 72.11834582 108.8721553 70.84423828 104.34960938 C69.20129779 98.5193511 67.5528643 92.69067591 65.89968872 86.86331177 C65.31067168 84.78414015 64.72342413 82.70446625 64.13815308 80.62423706 C59.0695148 61.62989516 59.0695148 61.62989516 49 45 C48.4225 44.154375 47.845 43.30875 47.25 42.4375 C35.01655557 29.18460187 17.14583508 25.28611134 0 23 C0 15.41 0 7.82 0 0 Z " fill="#000000" transform="translate(93,48)"/>
<path d="M0 0 C7.54662378 -0.07020041 15.09321278 -0.12316048 22.64009094 -0.15543652 C26.14624751 -0.17094485 29.65217712 -0.191903 33.15820312 -0.22631836 C63.01172421 -0.51143794 88.54322517 2.07238608 111.3515625 23.17578125 C126.80030901 38.96960286 130.58196952 59.32503491 130.40722656 80.62817383 C129.82476231 106.04245958 123.01557409 129.4511563 104.5 147.625 C95.10237574 155.77924628 83.20594468 160.89911905 71 163 C70.01 163.18046875 69.02 163.3609375 68 163.546875 C49.80824399 166.03554479 27.83608762 166.19172332 12.05078125 155.6328125 C5.50005297 150.41718503 1.6537923 144.50882203 0.43287659 136.08888245 C-0.1794291 130.04916991 -0.13180926 124.01782619 -0.11352539 117.95288086 C-0.11367142 116.67384888 -0.11381744 115.39481689 -0.1139679 114.07702637 C-0.11425292 110.59625104 -0.1084041 107.1155107 -0.10139394 103.63474345 C-0.09511108 99.98725614 -0.09455272 96.33976789 -0.09336853 92.692276 C-0.09026969 85.79707922 -0.08207593 78.90189844 -0.07201904 72.00670868 C-0.06081281 64.15175442 -0.05533612 56.29679937 -0.05032361 48.4418391 C-0.03989201 32.29455006 -0.02232077 16.14727708 0 0 Z " fill="#FFFFFF" transform="translate(561,446)"/>
<path d="M0 0 C17.10261641 0.20042129 32.80657137 5.82617236 45.15625 17.75 C57.29192612 30.67370704 60.93435268 47.18392882 60.87817383 64.41210938 C60.87503868 66.41281584 60.89926332 68.41350439 60.92382812 70.4140625 C60.9330691 89.19171514 56.70238914 105.62964684 44.5625 120.3125 C43.90636719 121.1065625 43.25023437 121.900625 42.57421875 122.71875 C31.12255245 135.31342631 14.14994318 140.85180286 -2.4375 142.3125 C-6.05304498 142.43852487 -9.66387862 142.42950563 -13.28125 142.41015625 C-14.29094849 142.4087413 -15.30064697 142.40732635 -16.34094238 142.40586853 C-19.53982611 142.40030781 -22.73863772 142.3877627 -25.9375 142.375 C-28.11718648 142.36997992 -30.29687407 142.3654179 -32.4765625 142.36132812 C-37.79689926 142.35035128 -43.11719448 142.33365268 -48.4375 142.3125 C-42.92258967 124.04294653 -37.3670424 105.78618769 -31.765625 87.54296875 C-31.47840073 86.60746311 -31.19117645 85.67195747 -30.89524841 84.70810318 C-28.52544613 76.99032982 -26.1541629 69.27301164 -23.78277588 61.5557251 C-21.99668745 55.74302907 -20.21114452 49.930166 -18.42629242 44.11709023 C-17.61050262 41.46088982 -16.79395377 38.80492364 -15.97735596 36.14897156 C-15.4642946 34.47849595 -14.95133298 32.80798971 -14.43847656 31.13745117 C-14.19221149 30.33612857 -13.94594643 29.53480597 -13.69221878 28.70920086 C-12.36005426 24.36332717 -11.04773991 20.01224504 -9.75671387 15.65396118 C-9.48198116 14.72851911 -9.20724846 13.80307703 -8.92419052 12.84959126 C-8.39528464 11.0643076 -7.86914622 9.27820116 -7.34610367 7.49119091 C-5.17062622 0.14953105 -5.17062622 0.14953105 0 0 Z " fill="#FFFFFF" transform="translate(611.4375,282.6875)"/>
</svg>
